<svg xmlns="http://www.w3.org/2000/svg" viewBox="9 15.4 188 57.6">
<style type="text/css">.cls-0 {fill:#F6F6F6;}
.cls-1 {fill:#0C4E7D;}
.cls-2 {fill:#0B4B11;}
.cls-3 {fill:#AF511A;}
.cls-4 {fill:#DC6C65;}
.cls-5 {fill:none;stroke:#CF3627;stroke-linecap:round;stroke-miterlimit:10;}
.cls-6 {fill:none;stroke:#DDB71A;stroke-width:1.6442;stroke-linecap:round;stroke-linejoin:round;stroke-miterlimit:10;}
.cls-7 {fill:none;stroke:#DDB71A;stroke-width:1.6442;stroke-linecap:round;stroke-miterlimit:10;}
.cls-8 {fill:none;stroke:#CA9D12;stroke-width:1.9107;stroke-linecap:round;stroke-miterlimit:10;}
.cls-9 {fill:#DDB71A;}
.cls-10 {fill:#094878;}</style>
<rect x="9" y="15" class="cls-0" width="188" height="58"/>
<g>
	<path class="cls-1" d="M 71.6,42.4 h -7 L 63.4,45.6 H 57 l 7.3,-19.1 H 71 L 78.3,45.6 H 72.8 L 71.6,42.4 z M 68,31.9 L 65.7,38.3 H 70 L 68,31.9 z"/>
	<path class="cls-1" d="M 91.8,26 c 4.9,0 8.4,2.6 9.4,6.9 H 95 C 94.3,31.5 93.1,30.6 91.4,30.6 S 87.2,32.2 87.2,35.4 C 87.2,38.6 89.3,40.7 91.4,40.7 C 93.1,40.7 94.3,39.9 95,38.5 h 5.7 C 100.1,42.6 96.7,45.6 91.8,45.6 C 86,45.7 82,42.1 82,35.9 C 82.1,30.1 85.8,26 91.8,26 z"/>
	<path class="cls-1" d="M 105.9,26.2 H 111 V 37 C 111,39.1 111.9,40.6 114,40.6 S 117.3,39.3 117.3,37 V 26.3 H 122.8 v 10.6 C 122.8,42.6 119.4,45.6 114,45.6 C 109,45.6 105.8,43.1 105.8,36.9 V 26.2 z"/>
	<path class="cls-1" d="M 128,26.3 h 6.5 L 140,38.7 L 145.1,26.3 H 151.7 V 45.5 H 146.5 V 35 L 142.8,45.5 h -4.4 L 134.3,35 V 45.5 H 128.8 V 26.3 z"/>
	<path class="cls-1" d="M 170,30.5 H 163 v 3 H 169.2 V 37.4 H 163 V 41.3 H 170 V 45.6 H 157.2 V 26.3 H 170 V 30.5 z"/>
	<path class="cls-1" d="M 194,26.3 V 45.5 H 188.7 L 181,34.6 V 45.5 H 175.5 V 26.3 H 180.7 L 188,37 V 26.3 H 193.5 L 194,26.3 z"/>
</g>
<g>
	<path class="cls-2" d="M 61.1,48.9 H 57 v 7.1 h 3.9 V 55 H 58.1 V 52.4 H 60.8 V 51.5 H 58 V 49 H 61 L 61.1,48.9 L 61.1,48.9 z"/>
	<path class="cls-2" d="M 63.5,48.1 V 55.3 H 67 V 54.4 H 64.6 V 48 L 63.5,48.1 L 63.5,48.1 z"/>
	<path class="cls-2" d="M 73.5,48.9 H 69.4 V 55.3 H 73.3 V 54.4 H 70.6 V 52.2 H 73.2 V 51.3 H 70.6 V 48.9 H 73.4 L 73.5,48.9 L 73.5,48.9 z"/>
	<path class="cls-2" d="M 79.2,48.1 C 77.2,48.1 75.6,49.6 75.6,51.7 C 75.6,53.8 77.1,55.4 79.2,55.4 C 80.8,55.4 82.2,54.6 82.6,53.3 H 81.5 C 81.1,54.1 80.4,54.5 79.3,54.5 C 77.7,54.5 76.7,53.4 76.7,51.7 s 1,-2.6 2.6,-2.6 C 80.1,49.1 80.7,49.6 81.1,50.4 H 82.5 C 81.8,48.9 80.6,48.1 79.2,48.1 z"/>
	<path class="cls-2" d="M 84.7,48.1 V 49 H 86.6 V 55.4 H 87.7 V 49 H 89.6 v -0.9 H 84.7 z"/>
	<path class="cls-2" d="M 95.6,50.4 C 95.6,51.1 95.2,51.6 94.2,51.6 h -1.3 V 49 H 94.2 C 95.2,48.9 95.6,49.5 95.6,50.4 z M 91.9,48.1 V 55.4 H 93 v -2.9 H 94 L 95.6,55.5 h 1.3 L 95.2,52.4 C 96.4,52.1 96.8,51.3 96.8,50.4 C 96.8,49.2 96.1,48.3 94.2,48.3 L 91.9,48.1 L 91.9,48.1 z"/>
	<path class="cls-2" d="M 99.2,55.5 H 100.6 V 48.1 H 99.2 V 55.5 z"/>
	<path class="cls-2" d="M 106.3,48.1 C 104.3,48.1 102.8,49.6 102.8,51.7 S 104.3,55.4 106.4,55.4 C 108,55.4 109.3,54.6 109.7,53.3 H 108.4 C 108,54.1 107.3,54.5 106.3,54.5 C 104.7,54.5 103.6,53.4 103.6,51.7 S 104.7,49 106.3,49 C 107.2,49 108,49.5 108.4,50.3 H 109.7 C 109.1,48.9 107.9,48.1 106.3,48.1 z"/>
	<path class="cls-2" d="M 116.3,52.9 H 113.9 L 115.1,49 L 116.3,52.9 z M 117,55.4 H 118.2 L 115.6,48.2 H 114.3 L 111.6,55.4 H 112.7 L 113.4,53.7 H 116.4 L 117,55.4 z"/>
	<path class="cls-2" d="M 120.4,48.1 V 55.3 H 123.9 V 54.4 H 121.5 V 48 L 120.4,48.1 L 120.4,48.1 z"/>
	<path class="cls-2" d="M 134.6,53.4 C 134.6,50.8 130.9,51.8 130.9,50.1 C 130.9,49.4 131.5,49 132.1,49 C 132.9,49 133.4,49.5 133.5,50 H 134.7 C 134.6,48.8 133.7,48.1 132.3,48.1 C 130.9,48.1 129.8,48.9 129.8,50.2 C 129.8,52.8 133.6,51.7 133.6,53.6 C 133.6,54.2 133.1,54.6 132.3,54.6 C 131.4,54.6 131,54.1 131,53.6 H 129.6 C 129.6,54.9 130.7,55.5 132.1,55.5 C 133.8,55.5 134.6,54.5 134.6,53.4 z"/>
	<path class="cls-2" d="M 143.7,51.7 C 143.7,53.4 142.5,54.5 141.2,54.5 C 139.7,54.5 138.5,53.4 138.5,51.7 S 139.6,49 141.1,49 C 142.5,49 143.7,50 143.7,51.7 z M 144.6,51.7 C 144.6,49.6 143,48.1 141,48.1 S 137.2,49.6 137.2,51.7 S 138.7,55.4 140.8,55.4 C 142.9,55.5 144.6,53.8 144.6,51.7 z"/>
	<path class="cls-2" d="M 146.9,48.1 V 55.3 H 150.4 V 54.4 H 148 V 48.1 H 146.9 z"/>
	<path class="cls-2" d="M 152.3,52.8 C 152.3,54.6 153.6,55.4 155.1,55.4 S 157.9,54.6 157.9,52.8 V 48.2 H 156.8 V 52.8 C 156.8,54 156.1,54.5 155.2,54.5 S 153.5,54 153.5,52.8 V 48.2 H 152.3 L 152.3,52.8 L 152.3,52.8 z"/>
	<path class="cls-2" d="M 159.6,48.1 V 49 H 161.6 V 55.4 H 162.7 V 49 H 164.8 v -0.9 H 159.6 z"/>
	<path class="cls-2" d="M 166.9,55.5 H 168.3 V 48.1 H 166.9 V 55.5 z"/>
	<path class="cls-2" d="M 176.8,51.7 C 176.8,53.4 175.7,54.5 174.3,54.5 C 172.8,54.5 171.7,53.4 171.7,51.7 S 172.8,49 174.3,49 C 175.7,49 176.8,50 176.8,51.7 z M 178,51.7 C 178,49.6 176.4,48.1 174.4,48.1 S 170.6,49.6 170.6,51.7 S 172.1,55.5 174.3,55.5 C 176.3,55.5 178,54 178,51.7 z"/>
	<path class="cls-2" d="M 185.1,48.1 V 53.7 L 181.5,48.1 h -1.2 V 55.4 H 181.5 V 49.8 L 185.1,55.4 H 186.3 V 48.1 H 185.1 z"/>
	<path class="cls-2" d="M 193.8,53.4 C 193.8,50.8 190.1,51.8 190.1,50.1 C 190.1,49.4 190.6,49 191.4,49 C 192.2,49 192.6,49.5 192.7,50 H 193.9 C 193.8,48.8 193,48.1 191.5,48.1 C 190.1,48.1 189.1,48.9 189.1,50.2 C 189.1,52.8 192.8,51.7 192.8,53.6 C 192.8,54.2 192.3,54.6 191.5,54.6 C 190.6,54.6 190.2,54.1 190.2,53.6 H 189 C 189,54.9 190.1,55.5 191.4,55.5 C 193,55.5 193.8,54.5 193.8,53.4 z"/>
</g>
<g>
	<path class="cls-3" d="M 57.7,58.2 H 59.8 C 61.3,58.2 62.5,59.1 62.5,60.6 C 62.5,62.2 61.4,63 59.9,63 h -2.1 v -4.9 L 57.7,58.2 z M 59.8,62.3 C 60.9,62.3 61.7,61.7 61.7,60.6 C 61.7,59.5 60.9,59 59.8,59 h -1.2 V 62.4 h 1.2 L 59.8,62.3 z"/>
	<path class="cls-3" d="M 63,61.1 C 63,60.1 63.8,59.2 64.9,59.2 S 66.8,60 66.8,61.1 S 66,63.1 64.9,63.1 C 63.9,63.1 63,62.3 63,61.1 z M 66.1,61.1 C 66.1,60.4 65.6,59.9 64.9,59.9 S 63.7,60.4 63.7,61.1 S 64.2,62.4 64.9,62.4 S 66.1,61.9 66.1,61.1 z"/>
	<path class="cls-3" d="M 74.3,60.9 V 63.1 H 73.5 V 61 C 73.5,60.3 73.2,60 72.6,60 C 72,60 71.6,60.4 71.6,61.1 V 63.1 H 70.8 V 61.1 C 70.8,60.4 70.5,60.1 70,60.1 C 69.3,60.1 68.9,60.5 68.9,61.2 V 62.9 H 67.8 V 59.1 H 68.6 V 59.6 C 68.9,59.3 69.3,59.1 69.8,59.1 C 70.3,59.1 70.8,59.3 71.1,59.8 C 71.4,59.4 71.9,59.1 72.4,59.1 C 73.5,59.2 74.3,59.6 74.3,60.9 z"/>
	<path class="cls-3" d="M 78.9,61.4 H 76.1 C 76.2,61.9 76.6,62.4 77.3,62.4 C 77.7,62.4 78.1,62.3 78.4,62 L 78.8,62.5 C 78.5,62.9 78,63.1 77.3,63.1 C 76.1,63.1 75.3,62.3 75.3,61.1 S 76.1,59.1 77.2,59.1 C 78.3,59.1 79.1,59.9 79.1,61.1 C 78.9,61.3 78.9,61.4 78.9,61.4 z M 76.1,60.9 H 78.2 C 78.2,60.4 77.8,59.9 77.2,59.9 C 76.6,59.8 76.2,60.3 76.1,60.9 z"/>
	<path class="cls-3" d="M 79.4,62.7 L 79.7,62 C 80,62.3 80.5,62.4 81.1,62.4 C 81.6,62.4 81.9,62.3 81.9,61.9 C 81.9,61.1 79.6,61.9 79.6,60.4 C 79.6,59.6 80.2,59.2 81.2,59.2 C 81.7,59.2 82.2,59.3 82.6,59.5 L 82.3,60.1 C 82,59.9 81.6,59.8 81.3,59.8 C 80.7,59.8 80.5,60 80.5,60.3 C 80.5,61.1 82.7,60.5 82.7,61.9 C 82.7,62.6 82.1,63.1 81.1,63.1 C 80.4,63.1 79.8,62.9 79.4,62.7 z"/>
	<path class="cls-3" d="M 85.6,62.8 C 85.4,63 85.1,63.1 84.8,63.1 C 84,63.1 83.6,62.7 83.6,61.9 V 59.9 H 83 V 59.3 H 83.6 v -0.8 h 0.8 v 0.8 H 85.2 V 59.9 H 84.3 v 1.8 C 84.3,62.2 84.6,62.4 85.1,62.4 C 85.3,62.5 85.4,62.4 85.6,62.8 z"/>
	<path class="cls-3" d="M 86.2,58 C 86.2,57.8 86.5,57.5 86.7,57.5 C 87.1,57.5 87.3,57.8 87.3,58 C 87.3,58.3 87.1,58.6 86.7,58.6 C 86.5,58.6 86.2,58.3 86.2,58 z M 86.3,59.2 H 87.1 V 62.9 H 86.3 V 59.2 z"/>
	<path class="cls-3" d="M 87.9,61.1 C 87.9,60 88.7,59.2 90,59.2 C 90.7,59.2 91.2,59.5 91.5,60.1 L 90.8,60.5 C 90.6,60.2 90.3,59.9 89.9,59.9 C 89.2,59.9 88.7,60.4 88.7,61.1 C 88.7,61.9 89.2,62.4 89.9,62.4 C 90.3,62.4 90.6,62.3 90.8,61.9 L 91.5,62.3 C 91.2,62.8 90.6,63.2 89.9,63.2 C 88.8,63.1 87.9,62.3 87.9,61.1 z"/>
	<path class="cls-3" d="M 97.2,60.8 V 63 H 96.5 V 62.6 C 96.3,62.9 96,63.1 95.4,63.1 C 94.6,63.1 94,62.6 94,62 C 94,61.4 94.4,60.9 95.5,60.9 H 96.5 V 60.8 C 96.5,60.3 96.2,59.9 95.6,59.9 S 94.7,60 94.4,60.3 L 94.2,59.6 C 94.6,59.3 95.2,59.2 95.7,59.2 C 96.6,59.2 97.2,59.8 97.2,60.8 z M 96.5,61.9 V 61.4 H 95.6 C 95,61.4 94.7,61.6 94.7,62 S 95,62.6 95.5,62.6 C 96,62.6 96.5,62.4 96.5,61.9 z"/>
	<path class="cls-3" d="M 101.9,60.9 V 63.1 H 101.2 V 61 C 101.2,60.3 100.9,60 100.4,60 C 99.7,60 99.3,60.4 99.3,61.1 V 63.1 H 98.5 V 59.3 H 99.3 V 59.8 C 99.6,59.5 100,59.3 100.5,59.3 C 101.3,59.2 101.9,59.6 101.9,60.9 z"/>
	<path class="cls-3" d="M 106.6,57.9 V 62.9 H 105.8 V 62.4 C 105.5,62.8 105.1,63 104.6,63 C 103.6,63 102.8,62.2 102.8,61.1 S 103.6,59.1 104.6,59.1 C 105.1,59.1 105.5,59.3 105.8,59.6 V 57.9 H 106.6 z M 105.8,61.1 C 105.8,60.4 105.3,59.9 104.6,59.9 C 103.9,59.9 103.4,60.4 103.4,61.1 C 103.4,61.9 103.9,62.4 104.6,62.4 C 105.3,62.4 105.8,61.9 105.8,61.1 z"/>
	<path class="cls-3" d="M 109.3,60.6 C 109.3,59.2 110.4,58.1 111.8,58.1 C 112.6,58.1 113.2,58.3 113.6,58.8 L 113.1,59.3 C 112.7,58.9 112.3,58.8 111.8,58.8 C 110.8,58.8 110.1,59.5 110.1,60.6 S 110.8,62.4 111.9,62.4 C 112.4,62.4 112.8,62.2 113.2,61.8 L 113.7,62.4 C 113.3,62.9 112.6,63.1 111.9,63.1 C 110.4,63 109.3,62 109.3,60.6 z"/>
	<path class="cls-3" d="M 114,61.1 C 114,60.1 114.8,59.2 116,59.2 C 117.1,59.2 117.9,60 117.9,61.1 S 117.1,63.1 116,63.1 C 114.8,63.1 114,62.3 114,61.1 z M 117.1,61.1 C 117.1,60.4 116.6,59.9 116,59.9 C 115.3,59.9 114.8,60.5 114.8,61.1 S 115.3,62.4 116,62.4 C 116.6,62.4 117.1,61.9 117.1,61.1 z"/>
	<path class="cls-3" d="M 124.7,60.9 V 63.1 H 123.9 V 61 C 123.9,60.3 123.6,60 123.1,60 C 122.4,60 122,60.4 122,61.1 V 63.1 H 121.3 V 61.1 C 121.3,60.4 121,60.1 120.4,60.1 C 119.8,60.1 119.4,60.5 119.4,61.3 V 63 H 118.5 V 59.3 H 119.2 V 59.8 C 119.5,59.5 119.9,59.3 120.4,59.3 S 121.3,59.5 121.6,59.9 C 121.9,59.5 122.4,59.2 122.9,59.2 C 124,59.2 124.7,59.6 124.7,60.9 z"/>
	<path class="cls-3" d="M 132.1,60.9 V 63.1 H 131.2 V 61 C 131.2,60.3 130.9,60 130.4,60 C 129.8,60 129.4,60.4 129.4,61.1 V 63.1 H 128.6 V 61.1 C 128.6,60.4 128.3,60.1 127.8,60.1 C 127.1,60.1 126.7,60.5 126.7,61.3 V 63 H 125.9 V 59.3 H 126.6 V 59.8 C 126.9,59.5 127.3,59.3 127.8,59.3 C 128.3,59.3 128.8,59.5 129.1,59.9 C 129.4,59.5 129.9,59.2 130.4,59.2 C 131.4,59.2 132.1,59.6 132.1,60.9 z"/>
	<path class="cls-3" d="M 136.7,61.4 H 134 C 134.1,61.9 134.5,62.4 135.2,62.4 C 135.6,62.4 136,62.3 136.2,62 L 136.6,62.5 C 136.3,62.9 135.8,63.1 135.2,63.1 C 134,63.1 133.2,62.3 133.2,61.1 S 134,59.2 135.1,59.2 C 136.2,59.2 136.9,60 136.9,61.2 C 136.7,61.3 136.7,61.4 136.7,61.4 z M 134,60.9 H 136.1 C 136.1,60.4 135.7,59.9 135.1,59.9 S 134,60.3 134,60.9 z"/>
	<path class="cls-3" d="M 139.8,59.2 V 59.9 c -0.1,0 -0.1,0 -0.2,0 C 139,59.9 138.5,60.3 138.5,61.1 V 63.1 H 137.7 V 59.3 H 138.5 V 59.9 C 138.7,59.4 139.2,59.2 139.8,59.2 z"/>
	<path class="cls-3" d="M 140.3,61.1 C 140.3,60 141.1,59.2 142.3,59.2 C 143,59.2 143.5,59.5 143.8,60.1 L 143.1,60.5 C 142.9,60.1 142.6,59.9 142.2,59.9 C 141.5,59.9 141,60.4 141,61.1 C 141,61.9 141.5,62.4 142.2,62.4 C 142.6,62.4 142.9,62.3 143.1,61.9 L 143.8,62.3 C 143.5,62.8 143,63.2 142.3,63.2 C 141.1,63.1 140.3,62.3 140.3,61.1 z"/>
	<path class="cls-3" d="M 144.4,58 C 144.4,57.8 144.6,57.5 144.9,57.5 C 145.3,57.5 145.5,57.8 145.5,58 C 145.5,58.3 145.3,58.6 144.9,58.6 C 144.6,58.6 144.4,58.3 144.4,58 z M 144.5,59.2 H 145.3 V 62.9 H 144.5 V 59.2 z"/>
	<path class="cls-3" d="M 149.5,60.8 V 63 H 148.8 V 62.6 C 148.6,62.9 148.2,63.1 147.7,63.1 C 146.9,63.1 146.3,62.6 146.3,62 C 146.3,61.4 146.6,60.9 147.8,60.9 H 148.7 V 60.8 C 148.7,60.3 148.5,59.9 147.8,59.9 C 147.4,59.9 147,60 146.6,60.3 L 146.4,59.6 C 146.8,59.3 147.3,59.2 147.9,59.2 C 148.9,59.2 149.5,59.8 149.5,60.8 z M 148.7,61.9 V 61.4 H 147.8 C 147.2,61.4 147,61.6 147,62 S 147.3,62.6 147.8,62.6 C 148.2,62.6 148.6,62.4 148.7,61.9 z"/>
	<path class="cls-3" d="M 150.7,57.9 H 151.8 v 5.1 H 150.7 V 57.9 z"/>
	<path class="cls-3" d="M 158.1,62.3 V 63 H 154.8 V 58.2 H 157.9 V 58.9 H 155.5 V 60.2 H 157.7 V 60.9 h -2.2 V 62.3 H 158.1 z"/>
	<path class="cls-3" d="M 159.1,57.9 H 160.1 v 5.1 H 159.1 V 57.9 z"/>
	<path class="cls-3" d="M 164.6,61.4 H 162 C 162.1,61.9 162.5,62.4 163.2,62.4 C 163.6,62.4 164,62.3 164.2,62 L 164.6,62.5 C 164.3,62.9 163.8,63.1 163.2,63.1 C 162,63.1 161.2,62.3 161.2,61.1 S 162,59.2 163.1,59.2 S 164.9,60 164.9,61.2 C 164.6,61.3 164.6,61.4 164.6,61.4 z M 161.9,60.9 H 164 C 164,60.4 163.6,59.9 163,59.9 C 162.3,59.8 162,60.3 161.9,60.9 z"/>
	<path class="cls-3" d="M 165.2,61.1 C 165.2,60 166,59.2 167.1,59.2 C 167.8,59.2 168.4,59.5 168.6,60.1 L 168,60.5 C 167.7,60.1 167.5,59.9 167.1,59.9 C 166.5,59.9 165.9,60.4 165.9,61.1 C 165.9,61.9 166.4,62.4 167.1,62.4 C 167.5,62.4 167.8,62.3 168,61.9 L 168.6,62.3 C 168.4,62.8 167.8,63.2 167.1,63.2 C 166,63.1 165.2,62.3 165.2,61.1 z"/>
	<path class="cls-3" d="M 171.5,62.8 C 171.4,63 171.1,63.1 170.8,63.1 C 170,63.1 169.6,62.7 169.6,61.9 V 59.9 H 169 V 59.3 H 169.6 v -0.8 H 170.4 v 0.8 H 171.3 V 59.9 H 170.4 v 1.8 C 170.4,62.2 170.6,62.4 171.1,62.4 C 171.3,62.5 171.5,62.4 171.5,62.8 z"/>
	<path class="cls-3" d="M 174.4,59.2 V 59.9 C 174.4,59.9 174.3,59.9 174.2,59.9 C 173.5,59.9 173.1,60.3 173.1,61.1 V 63.1 H 172.3 V 59.3 H 173 V 59.9 C 173.2,59.4 173.7,59.2 174.4,59.2 z"/>
	<path class="cls-3" d="M 175,58 C 175,57.8 175.2,57.5 175.5,57.5 C 175.9,57.5 176.1,57.8 176.1,58 C 176.1,58.3 175.9,58.6 175.5,58.6 C 175.2,58.6 175,58.3 175,58 z M 175.1,59.2 H 175.9 V 62.9 H 175.1 V 59.2 z"/>
	<path class="cls-3" d="M 176.7,61.1 C 176.7,60 177.5,59.2 178.6,59.2 C 179.3,59.2 179.9,59.5 180.1,60.1 L 179.5,60.5 C 179.3,60.1 179,59.9 178.6,59.9 C 177.9,59.9 177.4,60.4 177.4,61.1 S 177.9,62.4 178.6,62.4 C 179,62.4 179.3,62.3 179.5,61.9 L 180.1,62.3 C 179.9,62.8 179.3,63.2 178.6,63.2 C 177.5,63.1 176.7,62.3 176.7,61.1 z"/>
	<path class="cls-3" d="M 180.7,58 C 180.7,57.8 180.9,57.5 181.2,57.5 C 181.6,57.5 181.8,57.8 181.8,58 C 181.8,58.3 181.6,58.6 181.2,58.6 C 180.9,58.6 180.7,58.3 180.7,58 z M 180.8,59.2 H 181.6 V 62.9 H 180.8 V 59.2 z"/>
	<path class="cls-3" d="M 185.8,60.8 V 63 H 185.1 V 62.6 C 184.9,62.9 184.6,63.1 184,63.1 C 183.2,63.1 182.6,62.6 182.6,62 C 182.6,61.4 182.9,60.9 184.1,60.9 H 185 V 60.8 C 185,60.3 184.7,59.9 184.1,59.9 C 183.7,59.9 183.3,60 183,60.3 L 182.7,59.6 C 183.1,59.3 183.7,59.2 184.2,59.2 C 185.2,59.2 185.8,59.8 185.8,60.8 z M 185,61.9 V 61.4 H 184.1 C 183.5,61.4 183.3,61.6 183.3,62 S 183.6,62.6 184.1,62.6 C 184.6,62.6 184.9,62.4 185,61.9 z"/>
	<path class="cls-3" d="M 190.5,60.9 V 63 H 189.8 V 61 C 189.8,60.3 189.5,60 189,60 C 188.4,60 187.9,60.4 187.9,61.1 V 63 H 187.1 V 59.3 H 187.9 V 59.8 C 188.1,59.5 188.6,59.3 189.1,59.3 C 189.9,59.2 190.5,59.6 190.5,60.9 z"/>
</g>
<path class="cls-4" d=""/>
		<line class="cls-5" x1="32.4" y1="18.6" x2="32.4" y2="24.1"/>
		<line class="cls-5" x1="21.4" y1="21.4" x2="23.8" y2="25.9"/>
		<line class="cls-5" x1="14.9" y1="29.8" x2="19" y2="32"/>
		<line class="cls-5" x1="12.7" y1="39.4" x2="17.8" y2="39"/>
		<line class="cls-5" x1="15.7" y1="49.7" x2="19.6" y2="46.9"/>
		<line class="cls-5" x1="45.2" y1="32.2" x2="49.6" y2="29.8"/>
		<line class="cls-5" x1="40.2" y1="26" x2="42.9" y2="21.6"/>
		<path class="cls-6" d="M 27.2,56.4 L 30.5,56.2"/>
		<path class="cls-7" d="M 27.2,56.4 C 28,50.2 20.1,47.9 20.1,38.5 C 20.4,31.9 26,26.5 32.3,26.5 C 37.9,26.5 42.8,30.3 44.2,35.7"/>
		<path class="cls-8" d="M 24.3,39.3 C 24.4,34.6 28.1,30.6 32.9,30.4"/>
		<line class="cls-7" x1="28.7" y1="59.4" x2="34.9" y2="59.4"/>
		<line class="cls-7" x1="28.7" y1="61.1" x2="34.7" y2="61.1"/>
		<line class="cls-7" x1="30.1" y1="62.8" x2="33.3" y2="62.8"/>
		<path class="cls-9" d="M 30.4,55.6"/>
		<path class="cls-10" d="M 31.9,56.6 L 46.4,35 L 40.7,50.5 L 51.4,48.7 L 34.3,69.8 L 40.6,55.4 L 31.9,56.6 z M 33.9,55.4 L 39,54.9 L 34.5,54.8 L 43.3,41.3 L 33.9,55.4 z M 38.7,63.5 L 48.6,49.7 L 44,50.5 L 48,50 L 38.7,63.5 z"/>
		</svg>