<svg xmlns="http://www.w3.org/2000/svg" viewBox="1 65.8 174 93">
<!-- SVG created with Arrow, by QuiverAI (https://quiver.ai) -->
  <style type="text/css">.cls-0 {fill:#EAEAEA;}
.cls-1 {fill:#2D5A83;}
.cls-2 {fill:#DFDF2B;}
.cls-3 {fill:#1DC6BA;}</style>
  <path class="cls-1" d="m4.2 88v-12.2c0-2.9 1.8-5.8 3.8-6.9h9.3c2.1 0.9 4.1 3.4 4.1 7v12.4c0 8.5-17.2 11.1-17.2-0.3zm9.9 1v-13.1c0-2.7-3.7-3.2-3.7-0.2v13.1c0.1 2.8 3.7 2.8 3.7 0.2z"/>
  <path class="cls-1" d="m33 85.5h-3.1v10.8h-6.6l-0.1-0.3v-27h13c5.2 2 6.9 15.8-3.2 16.5zm-1.9-11.6h-1.1v6.3h1.4c3.1 0 3.4-6.3-0.3-6.3z"/>
  <path class="cls-1" d="m59.8 73.9h-5.8v22.4l-0.3 0.3h-6.2l-0.2-0.3v-22.4h-5.2l-0.2-0.3v-4.5h17.9v4.5 0.3z"/>
  <path class="cls-1" d="m62.3 69h6.6l0.1 27.5-6.7 0.1v-27.6z"/>
  <path class="cls-1" d="m84.4 69h6.3l0.2 27.4-0.3 0.2h-5.9l-0.2-0.2v-17.8h-0.2l-3 5.8-3.2-6.1v18.1l-0.3 0.2h-6.1l-0.2-0.2v-27.4h6.8l3 5.9 3.1-5.9z"/>
  <path class="cls-1" d="m93.6 88.3v-19.3h6.5v19.8c0.2 2.8 3.4 2.6 3.5 0.1v-19.9h6.3l0.1 19.2c0.3 10.5-16.4 11.9-16.4 0.1z"/>
  <path class="cls-1" d="m125.5 69h7.2v27.4l-0.3 0.2h-6.4l-0.2-0.2v-17.8h-0.1l-3.1 5.8-3.2-6.1-0.1 18.1-0.3 0.2h-6.1l-0.3-0.2v-27.4h6.9l3.1 6 2.9-6z"/>
  <path class="cls-1" d="m14.7 97.2h5.4l0.1 23.1-0.3 0.3h-5.1l-0.2-0.3v-14.3h-0.1l-2.6 4.9-2.6-5.3 0.1 14.7-0.3 0.2h-4.9l-0.1-0.2v-23.1h5.4l2.5 5.6 2.7-5.6z"/>
  <path class="cls-1" d="m32.7 120.6-0.6-3.5h-3.9l-0.7 3.3-0.2 0.2h-5.3l5-23.4h6l5 23.4h-5.3zm-3.9-7.5h2.5l-1.1-7.6h-0.2l-1.2 7.6z"/>
  <path class="cls-1" d="m49.4 97.1h5.6l0.2 0.3-0.1 23.2h-5.9l-3.7-12.2v11.9l-0.3 0.3h-5.1l-0.2-0.3v-23.1l5.9-0.1 3.8 11.9v-11.6l-0.2-0.3z"/>
  <path class="cls-1" d="m67.7 120.6-0.6-3.5h-3.9l-0.6 3.5h-5.7l5.2-23.5h6.2l4.9 23.5h-5.5zm-3.8-7.4h2.6l-1.1-7.7h-0.2l-1.3 7.7z"/>
  <path class="cls-1" d="m73.9 114.2v-10.8c0-2.4 1.6-6.4 6.8-6.4s7 3 7 6.3v1.6l-0.2 0.2h-4.9l-0.2-0.3v-1.2c-0.1-2.4-3.1-2.4-3.1-0.1v11.1c0.3 2 2.8 1.9 3-0.1v-2.3h-1.3l-0.2-0.3v-4.1l6.7-0.1 0.2 0.2v6.6c-0.2 3.4-2.2 6.2-6.9 6.2-3.6 0.1-6.7-2-6.9-6.5z"/>
  <path class="cls-1" d="m89.5 120.3v-22.8l0.2-0.4h12.4l0.2 0.3v4.3l-0.2 0.2h-7.1v4.5h3.9l0.3 0.3v4.4l-0.3 0.2h-3.9v4.6h7.1l0.2 0.2v4.4l-0.2 0.1h-12.4l-0.2-0.3z"/>
  <path class="cls-1" d="m115.4 97.1h5l0.2 0.3v22.9l-0.2 0.3h-5l-0.2-0.3v-14.3l-2.7 4.9-2.8-5.2-0.1 14.6-0.3 0.3h-4.9l-0.1-0.3v-22.8l0.2-0.4h4.8l3.1 6 3-6z"/>
  <path class="cls-1" d="m122.7 120.3v-22.9l0.2-0.3h12.7l0.2 0.3-0.1 4.4-0.1 0.2h-7.1v4.4h4.1l0.2 0.4v4.3l-0.3 0.2h-4v4.5h7l0.3 0.2v4.5l-0.2 0.1h-12.7l-0.2-0.3z"/>
  <path class="cls-1" d="m147.3 97.1h5.5v23.3l-0.2 0.2h-5.6l-4-12.2 0.1 12-0.2 0.2h-5.2l-0.2-0.2v-23l0.2-0.4 5.9 0.1 3.9 12-0.2-11.7v-0.3z"/>
  <path class="cls-1" d="m169.3 97.1v4.8h-4.4v18.5l-0.2 0.2h-5.2l-0.1-0.2v-18.4h-4.4l-0.2-0.2 0.1-4.6 14.4-0.1z"/>
  <path class="cls-1" d="m4.5 135.2v-9.5c0-2.1 1.4-5 5.4-5s6 2.1 6 5.5v1.1l-0.2 0.2h-4.3l-0.1-0.2v-1.3c-0.3-1.6-2.6-1.9-2.7 0.3v9c0.3 1.9 2.6 1.7 2.6 0v-2h-1v-3.8h5.5l0.2 0.1v5.7c-0.3 2.9-2 5.1-5.8 5.1-3.2 0.1-5.5-1.7-5.6-5.2z"/>
  <path class="cls-1" d="m25.2 140.3-2.1-7.9h-0.7v7.8l-0.2 0.1h-4.4l-0.1-0.2v-19l6.4-0.1c3.4 0 5.6 2.3 5.5 5.9 0 2.1-0.6 3.5-2.2 4.8l2.6 8.6h-4.8zm-2.7-15.8v4.5h0.8c2.3 0 2.5-4.5 0-4.5h-0.8z"/>
  <path class="cls-1" d="m31.1 134.6v-8.3c0-3 1.7-5.5 5.7-5.5 4-0.1 6.7 1.8 6.7 5.6v8.2c0.1 3.8-2.5 5.9-6.4 5.8-2.9 0-5.8-1.5-6-5.8zm7.4 0.4 0.1-8.7c-0.1-2.4-2.7-2.3-2.8 0v8.8c0.3 1.9 2.4 1.7 2.7-0.1z"/>
  <path class="cls-1" d="m45 134.8v-13.7h4.7v14c0.2 1.8 2.3 1.7 2.4 0v-13.9l0.2-0.2h4.4l0.2 0.2v13.4c0 2.9-1.7 5.9-6 5.8-3.6 0-5.7-2.1-5.9-5.6z"/>
  <path class="cls-1" d="m65.4 132.9h-1.7v7.3l-4.9 0.1-0.1-19.3h6.7c6.2 0 7.3 11.9 0 11.9zm-1.3-8h-0.4v4.4h1c2.3 0 2.2-4.4 0.2-4.4h-0.8z"/>
  <path class="cls-2" d="m165.6 87.3-10.6-7.4c2.2-0.9 3.9-3.7 3.6-6.2-0.4-3.4-2.1-4.5-2.1-4.5h-7.9c-1.1 0.8-2.6 2.4-2.5 5 0.1 2.7 1.8 4.7 4.3 5.6l-9.9 7.5c-2.6-0.2-5 1.6-5 4.6-0.1 2.2 1.9 4.9 4.7 4.7 3 0 4.7-2.2 4.7-4.5 0-1.5-0.8-3-2.2-3.9l8.9-6.8v5.8c-2 0.4-3.9 2.1-3.9 4.6 0 2.8 2.2 4.9 4.9 4.8 2.6 0.1 4.7-2.1 4.7-4.5 0-2.2-1.7-4.4-3.8-4.8v-6l9.2 6.3c-1.6 0.7-2.6 2.3-2.6 4.2 0 2.5 2.1 4.8 4.7 4.8 2.9 0 4.5-1.8 4.7-4.1 0.2-2.5-1.4-4.9-3.9-5.2zm-25.5 7.8c-1.5 0-3.1-1.2-3.1-2.9 0-1.6 1.3-3 3.1-3 1.5 0 2.8 1.3 2.8 3.1 0 1.3-1 2.8-2.8 2.8zm15.4-3c0 1.5-1.5 3-2.9 3-1.7 0-3.2-1.3-3.2-2.9s1.3-3 3-3c1.6 0 3.1 1.4 3.1 2.9zm-3.1-13.5c-2.3 0-4.7-1.9-4.8-4.4-0.2-2.2 1.9-4.5 4.7-4.5 2.4 0 4.6 1.8 4.6 4.5 0 2-2 4.4-4.5 4.4zm12.3 16.5c-1.5 0-2.9-1.3-2.9-2.9 0.1-1.6 1.3-3 3-3 1.6 0 2.9 1 2.9 3 0 1.6-1.4 2.9-3 2.9z"/>
  <path class="cls-3" d="m4.2 154.6v-7.5h2.1c1.2 0 2 0.9 2 2.2v3.2c0 1.2-0.7 2.1-1.9 2.1h-2.2zm1.5-6.1v4.7h0.4c0.5 0 0.8-0.3 0.8-0.8v-3.3c-0.1-0.5-0.3-0.6-0.8-0.6h-0.4z"/>
  <path class="cls-3" d="m8.9 152.9v-1.9c0-1.2 0.8-1.9 1.8-1.9h0.2c1.4 0 2 0.8 2 1.9v1.3l-2.4 0.1v0.6c0.1 0.5 0.9 0.6 0.9-0.1l1.5 0.2v0.3c0 1-1 1.5-2.1 1.5-1-0.1-1.9-0.5-1.9-2zm1.6-1.7h0.8v-0.3c0-0.7-0.8-0.7-0.8 0v0.3z"/>
  <path class="cls-3" d="m13.3 153h1.6c0 0.7 0.9 0.9 0.9 0.2v-0.2c-1-0.4-2.3-0.4-2.4-1.9 0-2.5 3.7-2.6 3.8-0.3l-1.4 0.1c-0.2-0.6-0.9-0.7-0.9-0.1v0.3l1.3 0.5c0.5 0.2 1.1 0.5 1.1 1.3v0.6c-0.2 1.4-4 1.7-4-0.5z"/>
  <path class="cls-3" d="m17.8 147.5c0-1.3 1.7-1.3 1.8 0 0 1.3-1.8 1.3-1.8 0zm0.1 7.1v-5.5h1.6v5.5h-1.6z"/>
  <path class="cls-3" d="m21.3 155.3 1.4-0.2c0.4 0 0.4-0.4 0.4-0.7-0.7 0.9-2.5 0.7-2.7-1.4v-2.1c0-1.9 2.3-2.5 2.7-1.2v-0.6h1.4v6.4h-3.2v-0.2zm1.5-2.5v-1.9c0-0.7-0.7-0.7-0.8 0v1.9c0 0.7 0.7 0.7 0.8 0z"/>
  <path class="cls-3" d="m25.2 154.6v-5.5h1.6l0.1 0.4c0.1-0.7 2.3-1.1 2.4 1v4.1h-1.6v-3.7c0-0.7-0.8-0.7-0.8 0v3.7h-1.7z"/>
  <path class="cls-3" d="m35.9 154.3c-1.3 0.8-3.8 0.7-3.8-1.3v-0.5c0-0.6 0.5-1.1 0.9-1.5-1.2-1.8-0.4-4.1 1.9-3.8 2 0.3 2.5 2.6 0.6 3.9l0.6 0.8 0.6-1 1.3 0.9-1 1.4 1 1.4h-1.8l-0.3-0.3zm-0.9-1.3-0.8-1c-0.8 0.4-0.7 1.5 0.2 1.4l0.6-0.4zm-0.7-3c0.7-0.5 0.7-1.6 0.1-1.6-0.7 0-0.5 1.2-0.1 1.6z"/>
  <path class="cls-3" d="m40.9 154.6v-7.5h2c1.5 0 2.3 0.7 2.3 1.9 0 0.8-0.1 1.4-0.6 1.6 0.5 0.3 0.7 0.9 0.7 1.8 0 1.4-0.8 2.2-2.3 2.2h-2.1zm1.6-4.6h0.5c0.7 0 0.7-1.4 0-1.5h-0.4l-0.1 1.5zm0 3.2h0.4c0.8 0 0.8-2 0.1-2h-0.5v2z"/>
  <path class="cls-3" d="m45.7 153v-3.9h1.6v3.8c0.1 0.5 0.8 0.4 0.8-0.2v-3.6h1.7v5.5h-1.5v-0.5c-0.5 1-2.4 1.2-2.6-1.1z"/>
  <path class="cls-3" d="m50.5 147.5c0-1.3 2-1.4 2 0 0 1.3-2 1.4-2 0zm0.1 7.1v-5.5h1.7v5.5h-1.7z"/>
  <path class="cls-3" d="m52.9 154.6v-7.6h1.7l0.1 7.6h-1.8z"/>
  <path class="cls-3" d="m55.3 153.1v-2.4c0.1-1.7 1.8-2.1 2.6-1.1v-2.6h1.7v7.6h-1.5v-0.6c-0.4 1.2-2.7 1-2.8-0.9zm2.6-0.4v-1.8c0-0.6-0.8-0.7-0.8 0v1.9c0 0.7 0.8 0.7 0.8-0.1z"/>
  <path class="cls-3" d="m62.5 155.5-0.1-9.2h1.7v9.2h-1.6z"/>
  <path class="cls-3" d="m66.8 154.6v-7.6h1.7l0.9 2 0.9-2h1.6v7.5h-1.6l-0.1-4.8-0.8 1.5-0.9-1.5v4.9h-1.7z"/>
  <path class="cls-3" d="m72.4 153c0-1.6 1.1-1.8 2.5-1.8v-0.2c0-0.7-0.8-0.8-1-0.1h-1.4c0.1-2.4 4.1-2.5 4.1 0.1v3.6h-1.6v-0.5c-0.7 1.1-2.4 1-2.6-1.1zm2.6 0v-0.6h-0.4c-0.7 0-0.7 1.1 0 1l0.4-0.4z"/>
  <path class="cls-3" d="m77.1 147.5c0-1.3 1.8-1.4 1.9 0 0 1.3-1.9 1.4-1.9 0zm0.1 7.1v-5.5h1.8v5.5h-1.8z"/>
  <path class="cls-3" d="m79.6 154.6v-5.5h1.6v0.4c0.2-0.7 2.3-1.1 2.4 1.1v4h-1.7v-3.7c0-0.7-0.7-0.6-0.8 0l0.1 3.7h-1.6z"/>
  <path class="cls-3" d="m84.6 153.4v-3.1h-0.5v-1.2h0.5v-1.3h1.6v1.3h0.7v1.2h-0.7v2.6c0 0.5 0.7 0.3 0.7 0.5l-0.1 1.2c-0.2 0.3-2.2 0.6-2.2-1.2z"/>
  <path class="cls-3" d="m87.3 152.9v-1.9c0-1.2 0.8-1.9 1.8-1.9h0.3c1.2 0 1.9 0.7 2 1.9v1.3h-2.4v0.6c0.1 0.6 0.8 0.7 1 0l1.5 0.2-0.1 0.3c0 1.9-4.1 2.1-4.1-0.5zm1.7-1.7h0.8v-0.3c0-0.7-0.8-0.7-0.8 0v0.3z"/>
  <path class="cls-3" d="m92 154.6v-5.6h1.6v0.5c0.3-0.7 2.3-1.1 2.4 1.1v4.1h-1.6v-3.8c-0.1-0.7-0.8-0.6-0.8 0v3.7h-1.6z"/>
  <path class="cls-3" d="m96.5 153 0.1-0.3c0-1.3 0.9-1.6 2.5-1.6v-0.3c0-0.6-0.8-0.6-0.9 0h-1.5v-0.1c0-2.1 3.9-2.4 4.1 0.2v3.7h-1.5v-0.5c-0.7 1.1-2.8 1-2.8-1.1zm2.6 0v-0.6h-0.4c-0.7 0-0.7 1.1 0.1 1l0.3-0.4z"/>
  <path class="cls-3" d="m101.5 154.6v-5.6h1.5l0.1 0.5c0.3-0.7 2.4-1.2 2.6 1.1v4h-1.8v-3.7c0-0.7-0.7-0.6-0.9 0v3.7h-1.5z"/>
  <path class="cls-3" d="m106.2 153v-2.1c0-1 0.9-1.8 1.9-1.8h0.3c1.1 0 2 0.7 2 1.8v0.5h-1.7v-0.5c0-0.3-0.7-0.4-0.7 0v2c-0.1 0.6 0.9 0.7 0.8-0.2l1.6 0.1 0.1 0.2c-0.2 2.5-4.2 2.3-4.3 0z"/>
  <path class="cls-3" d="m110.8 153v-2c0-1.2 0.7-1.9 1.9-1.9h0.4c1.1 0.1 1.8 0.7 1.9 1.9v1.3l-2.4 0.1v0.5c0 0.6 0.9 0.7 0.8 0l1.6 0.1v0.3c0.1 1.9-4.2 2.2-4.2-0.3zm1.7-1.8h0.9v-0.2c0-0.8-0.9-0.8-0.9 0v0.2z"/>
  <path class="cls-3" d="m117.6 155.5v-9.2h1.7v9.2h-1.7z"/>
  <path class="cls-3" d="m122.1 154.6-0.2-7.5 1.8-0.1 0.9 2 0.9-2h1.7v7.5h-1.6l-0.1-4.8-0.9 1.5-0.8-1.4v4.8h-1.7z"/>
  <path class="cls-3" d="m127.7 153v-0.2c0-1.3 0.9-1.7 2.6-1.6v-0.4c-0.1-0.5-0.9-0.6-0.9 0.1l-1.5-0.1v-0.2c0-2 4.1-2.3 4.2 0.2v3.8h-1.6v-0.5c-0.7 1-2.8 1.1-2.8-1.1zm2.7 0v-0.7l-0.5 0.1c-0.7 0-0.8 1 0 1l0.5-0.4z"/>
  <path class="cls-3" d="m132.8 154.6-0.1-5.6h1.7v0.5c0.2-0.6 2.3-1.2 2.4 1.1v4h-1.6v-3.6c-0.1-0.8-0.9-0.8-0.8 0v3.6h-1.6z"/>
  <path class="cls-3" d="m137.2 153v-0.2c0-1.3 1-1.7 2.5-1.6v-0.4c0-0.6-0.9-0.6-0.8 0.1l-1.5-0.1v-0.2c0-2 3.8-2.3 4.1 0.2v3.8h-1.7l-0.1-0.5c-0.5 1-2.5 1-2.5-1.1zm2.5 0v-0.7h-0.4c-0.7 0-0.7 1.2 0.1 1.1l0.3-0.4z"/>
  <path class="cls-3" d="m142.8 155.3 1.4-0.2c0.4 0 0.4-0.4 0.4-0.7-0.6 0.7-2.4 0.7-2.6-1.4v-2.1c0.1-1.9 2.1-2.5 2.6-1.3v-0.6h1.7v6.5h-3.5v-0.2zm1.6-2.4v-2c0-0.7-0.8-0.7-0.8 0v2c0 0.5 0.8 0.6 0.8 0z"/>
  <path class="cls-3" d="m146.8 152.9v-1.9c0-1.3 0.8-2 1.8-2h0.4c1.1 0 2.1 0.7 2.1 1.9v1.4h-2.5v0.6c0.2 0.6 1 0.7 1 0l1.6 0.1v0.3c0 1.8-4.4 2.2-4.4-0.4zm1.8-1.7h0.8v-0.3c0-0.7-0.8-0.7-0.8 0v0.3z"/>
  <path class="cls-3" d="m151.6 154.5v-5.5h1.7v0.5c0.2-0.7 1.8-0.9 2.3 0 0.5-1 2.4-1.2 2.7 1v4h-1.6v-3.6c0-0.6-0.8-0.7-0.8 0v3.6l-1.6 0.1v-3.7c0-0.7-0.8-0.7-1 0v3.6h-1.7z"/>
  <path class="cls-3" d="m158.9 153v-1.9c0-1.4 0.6-2.1 1.6-2.1h0.5c1.2 0 2.1 0.8 2.1 1.9v1.4l-2.5 0.1v0.5c0.2 0.7 0.9 0.7 0.9 0l1.6 0.1v0.4c-0.1 1.8-4.2 2.1-4.2-0.4zm1.7-1.8h0.8v-0.3c0-0.7-0.8-0.7-0.8 0v0.3z"/>
  <path class="cls-3" d="m163.5 154.5v-5.5h1.5v0.5c0.3-0.7 2.5-1.1 2.6 1.1l-0.1 4h-1.6v-3.7c0-0.7-0.9-0.7-0.9 0.1v3.5h-1.5z"/>
  <path class="cls-3" d="m168.5 153.3v-3.1h-0.5v-1.2h0.5v-1.3h1.7v1.3h0.7l0.1 1.2h-0.8v2.7c0.1 0.5 0.7 0.3 0.7 0.4v1.3c-0.4 0-2.4 0.5-2.4-1.3z"/>
</svg>