<svg class="lg" role="img" aria-label="Clearway Driving School" preserveAspectRatio="xMidYMid meet" viewBox="0 0 169 92" version="1.1" xmlns="http://www.w3.org/2000/svg" xmlns:xlink="http://www.w3.org/1999/xlink" xml:space="preserve" xmlns:serif="http://www.serif.com/" style="fill-rule:evenodd;clip-rule:evenodd;stroke-linecap:round;stroke-miterlimit:10;"> <path d="M35.7,19.4C35.7,14.1 39.4,10 44,10C46.9,9.8 49.4,10.9 50.9,12.8L48.6,15.8C47.5,14.7 46.1,13.8 44,13.8C41.9,13.8 39.9,15.8 39.9,19.4C39.9,22.2 41.6,25 44.5,25C46.4,25 47.5,24.3 48.8,22.9L51.1,25.7C49.4,27.7 47.3,28.9 44.4,28.9C39.1,28.9 35.7,24.8 35.7,19.4Z" style="fill:#FDCB03;fill-rule:nonzero;stroke:var(--lg-stroke);stroke-width:0.1px;"></path> <path d="M52.9,10.4L56.7,10.4L56.7,24.7L65,24.7L65,28.6L52.9,28.6L52.9,10.4Z" style="fill:#FDCB03;fill-rule:nonzero;stroke:var(--lg-stroke);stroke-width:0.1px;"></path> <path d="M66.6,10.4L78.9,10.4L78.9,14L70.3,14L70.3,17.4L77.8,17.4L77.8,21.2L70.3,21.2L70.3,24.8L78.9,24.8L78.9,28.6L66.6,28.6L66.6,10.4Z" style="fill:#FDCB03;fill-rule:nonzero;stroke:var(--lg-stroke);stroke-width:0.1px;"></path> <path d="M86.7,10.2L90,10.2L96.9,28.5L93,28.5L91.6,24.5L85,24.5L83.6,28.5L79.7,28.5L86.7,10.2ZM90.3,20.7L88.3,15L86.2,20.7L90.3,20.7Z" style="fill:#FDCB03;fill-rule:nonzero;stroke:var(--lg-stroke);stroke-width:0.1px;"></path> <path d="M98.5,10.4L106.2,10.4C110.2,10.4 112.3,12.9 112.3,16.4C112.3,18.9 111.1,21 108.9,21.9L112.7,28.3L108.5,28.3L105,22.8L102.2,22.8L102.2,28.6L98.5,28.6L98.5,10.4ZM105.9,19C107.5,19 108.5,18.1 108.5,16.6C108.5,15.1 107.5,13.9 105.9,13.9L102.4,13.9L102.4,19L105.9,19Z" style="fill:#FDCB03;fill-rule:nonzero;stroke:var(--lg-stroke);stroke-width:0.1px;"></path> <path d="M112.8,10.4L116.9,10.4L120.3,22.9L123.9,10.4L127.1,10.4L130.8,22.9L134.3,10.4L138.2,10.4L132.6,28.7L129.2,28.7L125.7,16.7L121.8,28.7L118.6,28.7L112.8,10.4Z" style="fill:#FDCB03;fill-rule:nonzero;stroke:var(--lg-stroke);stroke-width:0.1px;"></path> <path d="M143.6,10.2L147.3,10.2L153.9,28.5L150.2,28.5L148.7,24.5L141.8,24.5L140.2,28.5L136.3,28.5L143.6,10.2ZM147.4,20.7L145.3,15L143,20.7L147.4,20.7Z" style="fill:#FDCB03;fill-rule:nonzero;stroke:var(--lg-stroke);stroke-width:0.1px;"></path> <path d="M157.6,21.2L151.6,10.4L155.8,10.4L159.5,17.4L163.5,10.3L167.3,10.3L161.3,21.2L161.3,28.5L157.6,28.5L157.6,21.2Z" style="fill:#FDCB03;fill-rule:nonzero;stroke:var(--lg-stroke);stroke-width:0.1px;"></path> <path d="M41.9,34.4L49.4,34.4C55.1,34.2 59.9,38.5 60.5,43.1L60.5,46C59.9,50.5 56.1,54.7 50.4,54.7L41.9,54.7L41.9,34.4ZM49.4,52.6C54.5,52.6 57.6,49.3 57.8,44.7L57.8,43.6C57.4,40.2 54.9,36.8 49.6,36.6L44.4,36.6L44.3,52.6L49.4,52.6Z" style="fill:#231F20;fill-rule:nonzero;stroke:var(--lg-stroke);stroke-width:0.1px;stroke-linecap:butt;stroke-miterlimit:4;"></path> <path d="M64.2,34.4L73.9,34.4C78.1,34.4 80.5,36.8 80.5,40.2C80.5,43.6 78.6,46 75.3,46.5L81.2,54.7L78.3,54.7L72.7,46.9L66.8,46.9L66.8,54.7L64.2,54.7L64.2,34.4ZM72.9,44.6C76.5,44.6 78,43.2 78,40.6C78,38.5 76.5,36.7 72.9,36.6L66.8,36.6L66.8,44.6L72.9,44.6Z" style="fill:#231F20;fill-rule:nonzero;stroke:var(--lg-stroke);stroke-width:0.1px;stroke-linecap:butt;stroke-miterlimit:4;"></path> <rect x="85.6" y="34.4" width="2.3" height="20.3" style="fill:#231F20;fill-rule:nonzero;stroke:var(--lg-stroke);stroke-width:0.1px;stroke-linecap:butt;stroke-miterlimit:4;"></rect> <path d="M92,34.4L94.7,34.4L102.1,51.8L109.4,34.4L112.1,34.4L103.3,54.8L101,54.8L92,34.4Z" style="fill:#231F20;fill-rule:nonzero;stroke:var(--lg-stroke);stroke-width:0.1px;stroke-linecap:butt;stroke-miterlimit:4;"></path> <rect x="115.9" y="34.4" width="2.4" height="20.3" style="fill:#231F20;fill-rule:nonzero;stroke:var(--lg-stroke);stroke-width:0.1px;stroke-linecap:butt;stroke-miterlimit:4;"></rect> <path d="M124.2,34.4L126.6,34.4L139.5,50.4L139.5,34.4L142.2,34.4L142.2,54.7L139.9,54.7L126.7,38.3L126.7,54.7L123.9,54.7L124.2,34.4Z" style="fill:#231F20;fill-rule:nonzero;stroke:var(--lg-stroke);stroke-width:0.1px;stroke-linecap:butt;stroke-miterlimit:4;"></path> <path d="M146.8,40C148.5,36.7 151.6,34.1 156.2,34C159,33.9 162,34.6 164.8,36.6L163.3,38.4C161.4,36.9 159.6,36.2 156.6,36.2C152,36.2 149.2,39.7 149.4,44.6C149.6,49.3 152.5,52.8 157.3,52.9C159.5,52.9 161.7,52.3 163.3,51.1L163.3,46L156.9,46L156.9,43.8L165.6,43.8L165.6,52C163.7,53.5 161.2,55 157.1,55C150.8,55 146.9,50.6 146.7,45.1C146.6,43.4 146.9,41.3 146.8,40Z" style="fill:#231F20;fill-rule:nonzero;stroke:var(--lg-stroke);stroke-width:0.1px;stroke-linecap:butt;stroke-miterlimit:4;"></path> <path d="M71.5,59.2L36.6,65.4L24.9,1L13.2,3.1L13.6,5.5L12.5,5.6L12,3.3L1,5.3L16.4,91.2L28,89L27.4,86L28.6,85.7L29.1,88.8L40.9,86.6L40.3,83.3L41.7,83.1L42.1,86.4L43.5,86.2L42.9,82.8L43.9,82.5L44.6,85.9L75.1,79.9C72,78.6 69.3,75.3 68.8,70.9L66,71.3L65.9,70.1L68.6,69.6C68.3,66 69.1,62 71.5,59.2ZM14.2,9.3L15.2,9.1L15.9,14.3L14.9,14.5L13.1,9.4L14.2,9.3ZM16,24.2L15,18.6L15.9,18.5L16.8,23.9L16,24.2ZM17.6,33.9L16.5,28.4L17.6,28.2L18.7,33.6L17.6,33.9ZM19.4,43.3L18.5,37.8L19.6,37.7L20.5,43L19.4,43.3ZM21.3,52.7L20.3,47.5L21.4,47.3L22.3,52.5L21.3,52.7ZM23,62.1L22.1,56.7L23.2,56.6L24.1,61.8L23,62.1ZM24.8,71.4L23.8,66.2L25,65.9L25.9,71.2L24.8,71.4ZM26.6,81.5L25.6,75.8L26.8,75.6L27.8,81.2L26.6,81.5ZM37.8,69.9L37.1,66.8L38.4,66.6L39.1,69.7L37.8,69.9ZM38.4,72.1L39.6,71.9L40.1,74.9L42.7,74.4L42.9,75.7L38.9,76.4L38.4,72.1ZM39.9,80.9L39.3,77.7L40.6,77.5L41.1,80.6L39.9,80.9ZM42.3,80.5L41.8,77.2L43.1,77L43.6,80.1L42.3,80.5ZM46.7,75.1L46.6,73.7L52.1,72.7L52.2,73.9L46.7,75.1ZM56.4,73.2L56.2,71.9L61.7,70.9L61.9,72.1L56.4,73.2Z" style="fill:#605E5F;fill-rule:nonzero;stroke:var(--lg-stroke);stroke-width:0.1px;stroke-linecap:butt;stroke-linejoin:bevel;stroke-miterlimit:4;"></path> <path d="M72.6,75L74.7,72.3C76.1,73.5 77.7,74.3 79.1,74.3C80.6,74.3 81.5,73.7 81.5,72.7C81.5,71.7 80.9,71.4 78.5,70.6C75.6,69.8 73.3,68.7 73.3,65.5C73.3,62.6 75.4,60.2 79,60.2C81.4,60.2 83.4,61 84.9,62.4L82.9,65.2C81.6,64.4 80.4,63.6 78.8,63.6C77.5,63.6 76.8,64.3 76.8,65.2C76.8,66.1 77.6,66.6 79.9,67.2C83.1,68.2 85,69.3 84.9,72.1C85,75.9 82,77.6 78.9,77.7C76.6,77.6 74.2,76.9 72.6,75Z" style="fill:#231F20;fill-rule:nonzero;stroke:var(--lg-stroke);stroke-width:0.1px;stroke-linecap:butt;stroke-linejoin:round;stroke-miterlimit:4;"></path> <path d="M86.8,68.7C86.8,64 90.2,60.2 94.7,60.2C97.4,60.2 99.2,61 101,62.6L98.8,65.4C97.8,64.5 96.9,63.6 94.9,63.6C92.5,63.6 90.5,65.6 90.5,68.7C90.5,72 92.2,74.3 94.9,74.3C96.6,74.3 97.6,73.6 98.9,72.4L101.1,75C99.3,76.9 97.4,77.8 94.5,77.8C90.2,78 86.8,74.4 86.8,68.7Z" style="fill:#231F20;fill-rule:nonzero;stroke:var(--lg-stroke);stroke-width:0.1px;stroke-linecap:butt;stroke-linejoin:round;stroke-miterlimit:4;"></path> <path d="M103.4,60.5L106.9,60.5L106.9,67L113.5,67L113.5,60.5L117.1,60.5L117.1,77.7L113.6,77.7L113.6,70.6L106.9,70.6L106.9,77.6L103.4,77.7L103.4,60.5Z" style="fill:#231F20;fill-rule:nonzero;stroke:var(--lg-stroke);stroke-width:0.1px;stroke-linecap:butt;stroke-linejoin:round;stroke-miterlimit:4;"></path> <path d="M119,68.7C118.9,64.2 122.5,60.2 127.1,60.2C131.9,60.2 135.5,63.6 135.6,68.7C135.6,73.6 132.6,77.8 127.1,77.8C122.5,77.9 119,73.7 119,68.7ZM131.9,68.9C131.9,65.9 130.3,63.6 127.4,63.6C125,63.6 123,65.7 122.9,68.7C122.9,71.9 124.6,74.3 127.3,74.3C130,74.4 131.9,71.9 131.9,68.9Z" style="fill:#231F20;fill-rule:nonzero;stroke:var(--lg-stroke);stroke-width:0.1px;stroke-linecap:butt;stroke-linejoin:round;stroke-miterlimit:4;"></path> <path d="M136.8,68.6C136.8,64.2 140.3,60.2 145.1,60.2C149.6,60.2 153.3,63.6 153.5,68.7C153.5,73.6 150.4,77.8 145.2,77.8C140.4,78 136.9,73.9 136.8,68.6ZM149.7,68.9C149.7,66 148.1,63.6 145.3,63.6C143,63.6 140.9,65.6 140.7,68.7C140.7,71.9 142.3,74.3 145.2,74.3C147.7,74.4 149.7,72 149.7,68.9Z" style="fill:#231F20;fill-rule:nonzero;stroke:var(--lg-stroke);stroke-width:0.1px;stroke-linecap:butt;stroke-linejoin:round;stroke-miterlimit:4;"></path> <path d="M155.7,60.6L159.3,60.6L159.3,74.1L166.8,74.1L166.9,77.6L155.7,77.6L155.7,60.6Z" style="fill:#231F20;fill-rule:nonzero;"></path> </svg>