<?xml version="1.0" encoding="UTF-8" standalone="no"?>
<!DOCTYPE svg PUBLIC "-//W3C//DTD SVG 1.1//EN" "http://www.w3.org/Graphics/SVG/1.1/DTD/svg11.dtd">
<svg width="100%" height="100%" viewBox="0 0 150 170" version="1.1" xmlns="http://www.w3.org/2000/svg" xmlns:xlink="http://www.w3.org/1999/xlink" xml:space="preserve" xmlns:serif="http://www.serif.com/" style="fill-rule:evenodd;clip-rule:evenodd;stroke-linejoin:round;stroke-miterlimit:2;">
    <path d="M115.7,53.3C117.7,49.3 115.5,43.7 111.1,41.7C112.7,36.6 108.7,30.2 102.1,28.5C106.6,16.9 97.6,8.9 88.1,11.5C85.4,6.6 80.5,2.3 73.2,2.4C68.1,2.4 61.6,5.4 57.8,11.7L56.6,11.7C48.4,11.7 41.9,18.3 42.5,25.8C42.6,26.9 43,27.9 43.3,29.1C38.1,30 35.1,32.9 34.3,37.3C33.5,41.7 35.1,42.5 35,42.5C31.4,44.1 28.3,48.4 29.7,53.4C26.6,55.3 23.5,59.6 23.5,65.8C24,74.1 31.5,81.7 42.9,78.4C45.4,83.9 53.8,88.3 63.2,83L63.2,102.4C57.5,99.7 51,95.7 42.4,95.6C37.8,95.6 33.3,96.9 29.2,99.6L29.2,108.2C32.8,104.9 37.1,103.6 42,103.5C51.3,103.4 57.8,109.4 66.6,112.2C67.9,112.7 69.6,113.2 70.5,113.3L71.2,113.3L71.2,70.3C67.1,75.4 60.6,77.2 55.4,75.9C52.3,75.1 47.8,72.8 46,68.8C41.9,73.5 34.6,72.4 33.7,65.8C33.5,62.4 35.9,58.7 39.6,57.9C34.5,53.4 36.7,46.8 44.1,47C40,40.9 44.7,34.4 53.2,34.7C48.4,28.7 51,22.4 56,19.7C58.3,18.4 60.9,18.1 63.7,19.1C64.3,14.6 68.6,11.4 72.9,11.4C76.9,11.4 81.3,13.6 81.9,19.2C87.1,16.6 94,18.9 95.1,25.4C95.5,28.7 94.5,32 92.8,34.1C98.6,33.7 104.1,38.6 101.6,45.8L101,45.9C104.6,45.5 109.2,49.3 107.2,54.1L105.7,56.3C110.6,56.6 112.7,61.6 111.5,65.4C109.7,70.2 103.2,72.9 99.2,67.9C97.8,73.1 92.1,76.1 86.8,76.1C82.8,76.2 77.7,74.4 75,70.6L75,113.8C82.6,113.5 87.9,109.7 93,107.2C96.5,105.5 100,103.9 105,103.9C108.7,103.9 112.7,104.8 116.5,107.9L116.5,99.6C113.4,97.1 110,95.9 104,95.9C97.9,95.9 90.9,99.3 82.6,103.1L82.6,83.6C84.5,84.5 86.4,85.6 89.9,85.6C96.2,85.6 100.9,82.4 102.9,78.3C112.6,81 121.7,76.6 122.1,65.8C122.1,61.4 120,55.6 115.7,53.3Z" style="fill-rule:nonzero;"/>
    <path d="M90.9,111.6C86.7,114 81.5,117.1 74.3,117.2C67.4,117.2 62.2,115 57.2,111.9C53,109.3 48.8,106.4 42.2,106.4C37.4,106.4 33.4,107.7 29.2,110.9L29.2,120.1C32.4,116.9 37,114.5 41.8,114.5C49.8,114.4 54.1,117.9 60,120.5C64.1,122.5 68.1,125.3 78.2,125C84.4,124.3 89.8,121.5 92.6,119.8C96.5,117.7 100.6,115 105.6,114.9C109.2,114.8 113.6,115.6 116.6,120L116.6,111C114.1,108.5 110.4,106.7 104,106.7C98.6,106.9 94.4,109.3 90.9,111.4L90.9,111.6Z" style="fill-rule:nonzero;"/>
    <path d="M73.4,128.6C66.5,128.6 61.5,126.2 55.9,123C52,120.5 47.6,117.9 41.6,117.7C36.5,117.6 33,119.3 29.2,123L29.2,132.4C32.4,129.3 36.1,126.7 39.9,126.2C45.9,125.5 50.7,127.6 55,129.8C60.1,132.5 64.9,135.9 73.4,135.9C80,135.9 85.1,134 89.6,131.7C93.9,129.3 99.1,126.6 103.9,126.6C108.5,126.4 112.4,128.1 116.5,132.4L116.6,123.1C113.7,120.5 109.5,118.1 103.9,118.2C98.5,118.5 95.1,120 90,122.9C86.1,125.3 80.9,128.4 73.4,128.6Z" style="fill-rule:nonzero;"/>
    <path d="M9.7,152.4L9.7,156C9.7,156.9 9.1,157.2 8.6,157C8,156.9 8,156.5 8,155.7L8,143C8,142.4 8.2,142 9,142C9.5,142.1 9.7,142.5 9.7,143.2L9.7,147L14.5,147L14.5,143.5C14.4,139.5 12,138.2 8.6,138.2C5,138.3 2.8,139.3 2.8,143.1L2.8,156.4C2.9,160 5.5,161 8.6,160.9C12.5,160.9 14.4,159.4 14.4,156.3L14.4,152.4L9.7,152.4Z" style="fill-rule:nonzero;"/>
    <path d="M22.7,156C22.7,156.7 22.4,157.2 21.8,157.2C21.2,157.2 21,156.7 21,156L21,143.6C21,142.5 21.2,141.9 21.8,141.9C22.4,141.9 22.9,142.2 22.9,143.5L22.9,156L22.7,156ZM21.8,138.2C18.4,138.3 16,139.5 16,143.4L16,156.5C16.2,159.9 18.4,161 21.8,161C25.2,161 27.7,160 27.8,156.5L27.8,143.5C27.9,139.6 25.5,138.2 21.8,138.2" style="fill-rule:nonzero;"/>
    <path d="M38.8,139.6C38.1,138.5 36.4,138.2 34.8,138.2C32.1,138.3 29.5,139.3 29.4,143.1L29.4,160.6L34.5,160.6L34.4,143.6C34.4,142.5 34.8,141.9 35.5,142C36.1,142 36.4,142.4 36.4,143L36.5,160.6L41.2,160.6L41.2,143.2C41.2,142.6 41.6,141.9 42.2,141.9C42.9,141.9 43.1,142.4 43.1,143.5L43.2,160.6L48.2,160.6L48.2,143.1C48.2,139.5 45.7,138.2 43,138.2C41.5,138.3 39.6,138.7 38.8,139.6Z" style="fill-rule:nonzero;"/>
    <path d="M76.5,156.1C76.5,156.9 76.1,157.2 75.6,157.2C75.1,157.1 74.9,156.9 74.9,156.1L74.9,143.6C74.9,142.5 75.1,142 75.7,142C76.4,142 76.6,142.5 76.6,143.2L76.6,156.1L76.5,156.1ZM75.6,138.3C72.5,138.4 69.9,139.5 69.9,143.1L69.9,156.5C70.1,159.7 72.5,161.1 75.4,161C78.8,161 81.2,159.9 81.2,156.5L81.2,143.1C81.2,139.6 78.8,138.1 75.6,138.1" style="fill-rule:nonzero;"/>
    <path d="M88.1,139L88.1,138.5L82.9,138.5L82.9,160.5L88.1,160.5L88.2,143C88.2,142.5 88.4,142 89,142C89.6,142 89.9,142.4 89.9,143L89.9,160.5L94.7,160.5L94.7,143C94.6,139.7 93.1,138.3 90.6,138.2C89.5,138.2 88.6,138.6 88.1,139Z" style="fill-rule:nonzero;"/>
    <path d="M109.7,156.4L107.9,156.5L109.7,156.4C109.7,157 110,157.2 110,157.2C110,157.2 110.4,157.1 110.4,156.1L109.7,156.4Z" style="fill-rule:nonzero;"/>
    <path d="M109.6,138.5L96.4,138.5L96.4,156.5C96.5,159.6 98.1,161 101.4,160.9C102.9,160.9 104.5,160.5 105.4,159.4C106,160.2 107.1,161 109.6,161C113.5,161 115,159.5 115,155.9L115,138.5L109.7,138.5L109.6,156.1C109.6,157.1 109.2,157.2 108.9,157.2C108.5,157.2 107.9,157.1 107.9,156.1L107.8,138.5L109.6,138.5ZM102.9,156.2C102.9,156.9 102.6,157.2 102.1,157.2C101.4,157.2 101.2,156.9 101.2,156.2L101.2,138.5L102.8,138.5L102.9,156.2Z" style="fill-rule:nonzero;"/>
    <path d="M121.7,147L123.5,147L121.7,147L121.7,143.5C121.7,142.5 122,141.9 122.6,141.9C123.1,141.9 123.4,142.4 123.4,143.2L123.4,147L128.4,147L128.4,142.9C128.4,139.6 126.2,138.2 122.9,138.2C118.9,138.2 116.6,139.4 116.6,143.4C116.6,147.4 116.6,155.7 116.8,157C117.4,159.7 118.9,161 122.6,161C126,160.9 128.4,160 128.5,156.5L128.5,152.6L123.4,152.6L123.4,156.1C123.4,156.9 123.2,157.2 122.7,157.2C121.9,157.2 121.6,156.9 121.6,155.7L121.6,150.6L128.5,150.6L128.5,147L121.7,147Z" style="fill-rule:nonzero;"/>
    <path d="M135.2,138.5L130,138.5L130.1,160.5L138.4,160.5L138.4,156.9L135.4,156.9L135.2,138.5Z" style="fill-rule:nonzero;"/>
    <path d="M144.2,156.9L144.2,138.5L139.2,138.5L139.3,160.5L147.4,160.5L147.4,156.9L144.2,156.9Z" style="fill-rule:nonzero;"/>
    <path d="M68.4,157.6L68.4,143.6C68.4,139.5 66.4,138.2 63.5,138.2C62.2,138.2 60,138.7 59.5,139.7C58.6,138.7 56.9,138.1 55.6,138.2C52.4,138.2 50,139.6 50,143.1L50,160.5L55,160.5L54.9,143.5C54.9,142.6 55.2,141.9 56,141.9C56.6,142 56.9,142.2 56.9,143.5L56.9,160.6L61.8,160.6L61.8,143.5C61.8,142.5 62.2,141.9 62.7,141.9C63.5,141.9 63.7,142.4 63.7,143L63.7,158C63.7,165.7 69.6,167.9 74.1,167.9L76.2,167.8L76.2,163C72.9,163.4 68.6,163 68.4,157.6Z" style="fill-rule:nonzero;"/>
</svg>
