<?xml version="1.0" encoding="UTF-8" standalone="no"?>
<!DOCTYPE svg PUBLIC "-//W3C//DTD SVG 1.1//EN" "http://www.w3.org/Graphics/SVG/1.1/DTD/svg11.dtd">
<svg width="100%" height="100%" viewBox="0 0 250 172" version="1.1" xmlns="http://www.w3.org/2000/svg" xmlns:xlink="http://www.w3.org/1999/xlink" xml:space="preserve" xmlns:serif="http://www.serif.com/" style="fill-rule:evenodd;clip-rule:evenodd;stroke-linejoin:round;stroke-miterlimit:2;">
    <path d="M244.2,16.88L236.13,7.2C232,2.26 227.03,0.98 223.55,0.98C218.91,0.98 215.38,3.24 213.66,4.91C210.7,3.55 207.85,3.24 205.62,3.24C196.45,3.24 190.25,9.57 186.01,14.64C181.22,14.07 176.14,13.76 170.23,13.71C164.2,5.31 156.94,1.27 148.93,1.27C142.03,1.27 135.97,5.04 132.51,8.75C120.24,6.08 105.35,4.25 92.83,4.25C89.44,4.25 86.32,4.43 83.5,4.78C77.1,1.96 70.17,0.96 63.95,0.96C38.28,0.96 2.05,17.22 1.76,48.72C1.67,57.31 5.85,63.98 9.6,67.89C13.52,72.93 17.75,76.7 22.92,78.82C21.69,83.63 21.38,88.24 22.06,93.03C23.35,102.57 29.13,109.01 35.42,113.64C38.31,125.71 47.79,139.07 62.88,143.08C66.67,154.64 78.88,164.16 91.83,164.16C94.75,164.16 97.32,163.83 97.32,163.83C107.03,168.83 117.09,170.57 131.28,170.57C149.76,170.57 169.78,166.93 178.22,158.08C179.46,156.76 180.19,155.58 180.69,154.76C185.31,153.3 189.03,150.88 189.43,150.65C191.25,151.15 193.65,151.4 195.58,151.4C209.1,151.4 222.51,137.16 222.8,123.78C222.9,120.12 222.23,116.71 220.73,113.67C222.43,107.16 222.15,101.68 221.23,96.71C232.46,91.98 239.34,78.81 238.86,67.72C238.65,62.93 237.6,58.91 236.42,56.11C245.95,49.17 248.31,40.91 248.31,33.72C248.31,27.26 246.74,20.75 244.2,16.88Z" style="fill:white;fill-rule:nonzero;"/>
    <path d="M235.1,22.93L227.92,14.28C223.76,9.23 220.3,12.11 218.66,15.22C217.22,18.19 215.73,18.91 215.02,18.71C212.92,16.16 210.32,14.2 205.59,14.2C197.24,14.2 195.52,21.91 194.72,24.32C194.12,26.22 192.83,26.66 190.13,26.47C181.94,25.93 174.09,24.08 164.22,25.84C160.99,16.09 155.06,12.23 149.6,12.23C142.17,12.23 136.93,18.96 134.4,23.71C121.37,20.07 98.41,17.24 81.63,16.33C75.2,12.38 67.62,12.17 62.91,12.23C41.96,12.51 12.22,27.07 11.98,48.83C11.9,55.22 15.13,58.71 19.22,63.29C24.72,69.56 30.83,69.61 36.85,68.68C33.42,77.12 32.29,84.05 33.37,92.53C34.29,100.09 41.1,106.04 46.3,109.26C46.42,116.18 53.68,131.05 69.92,132.31C70.77,132.37 71.63,132.32 72.46,132.2C71.86,135.03 71.88,137.98 72.84,140.89C75.73,149.79 86.79,153.04 93.2,151.72C95.93,151.16 98.21,150.36 99.68,149.68C105.43,156.39 120.06,159.01 132.12,159.01C145.79,159.01 161.95,155.73 167.87,151.11C170.83,148.74 170.08,145.08 168.83,143.38C177.38,142.06 184.37,137.71 188.8,138.69C190.8,139.35 192.78,139.68 194.33,139.68C203.82,139.68 210.75,129.03 210.5,123.26C210.34,119.06 208.28,117.48 206.63,116.38C205.32,115.41 203.22,113.99 202.8,113.01C205.49,111.23 207.42,107.08 209.03,100.09C209.64,95.01 208.16,88.86 207.12,87.16C218.82,88.93 227.3,78.46 227.48,68.35C227.59,63.18 225.99,60.07 223.92,58.67L215.44,50.82C226.94,50.66 238,42.95 237.39,30.75C237.2,27.63 236.45,24.91 235.1,22.93Z" style="fill:rgb(209,45,39);fill-rule:nonzero;"/>
    <path d="M105.9,139.6C108.38,138.65 113.17,137.16 121.01,136.99C128.44,136.83 135.21,136.99 141.99,133.89C145.9,137.16 153.58,137.32 158.36,136.4C162.27,140.27 164.99,144.47 168.89,145.07C176.7,143.13 182.64,139.89 187.12,136.99C183.21,135.45 180.5,132.69 179.58,133.21C175.24,137.96 167.81,139.5 159.34,134.04C156.11,136.06 147.42,136.68 142.33,133.21C137.24,136.04 126.72,136.4 118.88,128.22C115.65,130.09 112.19,131.27 105.9,132.29L105.9,139.6Z" style="fill:rgb(240,176,180);fill-rule:nonzero;"/>
    <path d="M46.63,108.7C47.22,109.6 54.16,110.22 59.91,108.17C60.58,110.09 61.21,112.65 65.77,116.13C70.7,119.87 74.97,122.2 75.16,123.29C72.6,127.22 71.69,130.14 71.69,132.32C62.02,132.94 47.46,123.99 46.63,108.7Z" style="fill:rgb(240,176,180);fill-rule:nonzero;"/>
    <path d="M64.24,78.88L70.01,77.68L76.43,74.35C78.18,76.83 80.18,78.66 82.38,79.92C77.06,82.75 67.27,89.28 64.88,93.15C63.03,89.28 63.28,84.66 64.24,78.88Z" style="fill:rgb(240,176,180);fill-rule:nonzero;"/>
    <path d="M78.42,16.33C84.72,18.88 92.57,28.92 94.26,31.75C96.31,35.29 96.31,39.31 96.31,42.78C100.22,42.63 102.88,43.22 105.08,44.28C107.08,42.26 109.88,41.09 113.43,42.03C116.89,42.95 123.66,42.95 128.38,40.23C129.62,35.92 131.63,28.73 134.22,23.71C122.96,20.66 95.94,15.61 78.42,16.33Z" style="fill:rgb(240,176,180);fill-rule:nonzero;"/>
    <path d="M176.5,85.26C178.98,86.11 183.77,87.16 188.34,86.03C194.2,84.56 196.4,82.26 196.91,82.11C198.84,84.13 203.24,87.01 207.96,87.96C209.65,92.58 210.14,99.43 207.42,109.82L205.15,112.5L201.54,109.55C202.29,105.81 202.34,100.79 200.34,98.03C197.11,93.64 192.85,89.98 186.99,90.6C182.14,91.12 178.98,88.75 176.5,85.26Z" style="fill:rgb(240,176,180);fill-rule:nonzero;"/>
    <rect x="105" y="146.9" width="5.02" height="1.82" style="fill:rgb(246,242,208);fill-rule:nonzero;"/>
    <rect x="160.1" y="146.9" width="5.02" height="1.82" style="fill:rgb(246,242,208);fill-rule:nonzero;"/>
    <path d="M117.7,143L122.79,143C125.73,143 126.45,144.53 126.45,146.35C126.45,147.85 125.57,149.68 122.43,149.68L120.42,149.68L120.42,151.34L117.72,151.34L117.72,143L117.7,143ZM122.07,147.77C123.33,147.77 123.79,146.97 123.79,146.2C123.79,145.32 123.23,144.8 122.26,144.8L120.25,144.8L120.25,147.75L122.07,147.75L122.07,147.77Z" style="fill:rgb(246,242,208);fill-rule:nonzero;"/>
    <path d="M129,147.1C129,144.02 130.96,142.77 134.2,142.77C137.43,142.77 139.46,144.02 139.46,147.1C139.46,150.18 137.5,151.58 134.2,151.58C130.91,151.58 129,150.18 129,147.1ZM136.73,147.05C136.73,145.32 135.72,144.68 134.2,144.68C132.67,144.68 131.66,145.32 131.66,147.05C131.66,148.93 132.67,149.65 134.2,149.65C135.72,149.65 136.73,148.85 136.73,147.05Z" style="fill:rgb(246,242,208);fill-rule:nonzero;"/>
    <path d="M142.9,142.8L147.37,142.8C150.9,142.8 152.37,144.46 152.37,147.22C152.37,149.77 150.9,151.53 147.74,151.53L142.9,151.53L142.9,142.8ZM147.42,149.6C149.24,149.6 149.85,148.3 149.85,146.98C149.85,145.44 149,144.56 147.25,144.56L145.43,144.56L145.43,149.6L147.42,149.6Z" style="fill:rgb(246,242,208);fill-rule:nonzero;"/>
    <path d="M62.91,17.72C42.17,17.72 17.3,29.92 17.06,47.48C16.96,54.73 22.23,55.06 25.24,55.06C30.21,55.06 34.99,50.43 35.16,48.74C31.82,47.03 31.41,44.19 32.18,41.41C35.46,30.7 47.16,23.94 59.06,23.94C68.85,23.94 72.88,30.21 72.88,36.48C72.88,47.89 65.77,62.28 55.11,63.08C56.35,55.42 58.73,42.21 58.73,37.12C58.73,33.72 55.49,32.87 52.92,32.87C50.81,32.87 49.06,33.46 49.06,33.87C48.81,40.41 46.91,49.11 45.79,55.78C44.66,53.13 43.22,52.21 41.61,52.21C38.72,52.21 37.38,55.04 37.38,57.14C37.38,60.34 39.48,63.39 43.32,65.52C41.21,74.42 38.37,84.14 38.37,89.41C38.37,96.19 42.14,98.74 47.11,98.74C51.02,98.74 55.11,96.61 57.81,94.14C53.66,92.95 52.12,89.91 52.37,84.86C52.52,80.84 53.16,75.43 53.88,70.04C69.1,68.92 85.87,54.92 85.87,39.63C85.87,27.76 77.21,17.72 62.91,17.72Z" style="fill:rgb(246,242,208);fill-rule:nonzero;"/>
    <path d="M63.35,35.56C66.06,35.29 68.09,35.88 70.01,37.2C69.32,38.91 68.75,40.67 68.31,42.33C67.52,39.23 66.11,37.03 63.35,35.56Z" style="fill:rgb(240,176,180);fill-rule:nonzero;"/>
    <path d="M222.9,18.07C220.89,25.58 216.62,29.44 206.98,30.63L208.32,21.27C208.57,19.25 205.68,18.66 204.67,18.66C202.35,18.66 200.1,19.85 199.45,24.01L198.55,31.41C188.09,32.18 177.78,29.73 168.45,30.43C158.76,31.17 152.11,35.61 149.76,42.71L150.95,43.1C155.98,38.91 161.89,38.69 173.11,38.69C180.95,38.69 188.75,39.91 196.59,39.91C197.24,39.91 197.5,40.23 197.35,41.16C196.23,47.11 195.22,53.38 193.88,57.82C191.63,65.72 187.46,68.56 183.85,68.56C179.76,68.56 177.51,65.21 177.51,60.59C177.51,55.47 181.28,49.08 184.32,49.08C186.06,49.08 186.65,50.37 186.01,51.96C184.95,54.41 183.85,55.11 184.57,56.53C185.29,57.95 186.45,57.75 187.36,57.56C189.78,57.07 190.55,54.73 190.55,51.96C190.55,48.09 187.85,45.09 183.7,45.09C177.03,45.09 172.1,53.77 170.23,60.81C167.17,67.18 163.52,70.46 159.75,70.46C156.3,70.46 154.35,67.69 154,64.08C162.48,63.23 167.37,56.67 167.37,52.06C167.37,47.97 164.95,46.04 161.18,46.04C155.17,46.04 150.18,51.74 147.76,56.89L141.33,57.26C143.18,45.16 147.32,23.22 150.78,23.22C152.98,23.22 153.75,25.3 152.49,30.82L153.83,31.14C156.37,26.52 155.46,17.72 149.03,17.72C138.37,17.72 135.75,34.97 132.86,56.65C130.32,57.51 128.19,59.03 128.19,62.03C128.19,63.69 128.85,64.28 129.75,64.43C128,67.61 126.66,68.56 125.18,68.56C123.18,68.56 122.46,66.8 122.82,64.25C123.35,60.61 126.39,54.22 127.11,51.39C127.65,49.06 125.65,47.53 123.11,47.72C120.05,47.97 118.92,49.08 116.22,48.93C113.51,48.79 113.78,46.34 111.01,46.58C107.95,46.85 106.65,50.51 106.8,54.71C106.85,55.93 106.75,57.36 106.53,58.86C103.99,67.23 99.85,71.19 96.08,71.19C93.29,71.19 91.28,69.17 90.74,65.53C98.86,64.31 104.31,58.61 104.31,53.18C104.31,49.31 101.77,47.06 97.3,47.31C87.97,47.77 81.68,58.76 81.68,67.25C81.68,74.1 85.45,78.46 91.38,78.46C100.87,78.46 107.16,67.79 109.95,56.21L116.72,55.46C113.26,61.11 112.13,65.21 112.45,68.95C112.82,73.34 115.63,76.03 119.19,76.03C123.86,76.03 127.15,72.16 130.1,67.27C128.76,76.01 127.23,83.11 126.98,85.21C126.73,87.33 129.75,88.26 132.4,88.26C135.63,88.26 138.05,86.06 138.45,81.74C138.85,77.39 139.7,69.02 140.42,61.71L145.15,61.16C144.9,62.79 144.75,64.31 144.75,65.67C144.75,72.71 148.52,76.45 154.45,76.45C160.33,76.45 165.6,71.91 169.21,66.6C170.45,72.19 174.29,75.47 180.05,75.47C186.16,75.47 190.73,70.7 193.2,66.08C193.85,72.04 197.91,75.47 202.75,75.47C210.26,75.47 214.4,64.75 214.75,58.19C214.8,56.82 213.1,56.18 212.66,57.7C210.29,64.41 208.39,67.13 205.55,67.13C202.65,67.13 201.64,64.21 202.23,59.01C202.75,54.12 204.22,47.01 206.07,40.48C219.72,40.01 227.95,33.3 226.66,23.94C226.32,21.89 225.36,19.45 222.9,18.07ZM98.1,51.64C99.84,51.64 99.99,53.16 99.74,54.68C99.02,58.71 95.99,61.26 91.31,62.01C92.32,56.97 94.88,51.64 98.1,51.64ZM160.42,49.72C162.02,49.72 162.39,50.94 161.9,52.91C160.79,57.26 158.18,59.71 153.86,60.46C155.1,54.9 157.37,49.72 160.42,49.72Z" style="fill:rgb(246,242,208);fill-rule:nonzero;"/>
    <path d="M101.4,82.01C84,82.01 65.49,92.33 65.49,103.91C65.49,109.86 69.04,112.11 72.71,112.11C77.65,112.11 82.32,107.62 82.81,105.72C79.92,104.77 78.58,102.82 78.85,99.52C79.45,92.21 89.9,86.51 99.56,86.83C108.4,87.11 112.3,92.73 112.3,99.28C112.3,107.91 105.12,116.71 96.18,117.18C97.18,110.19 98.72,101.61 98.72,98.78C98.72,95.36 96.28,94.14 93.24,94.14C91.39,94.14 89.64,94.51 89.64,94.76C89.2,101.9 86.9,112.16 84.71,118.82C79.97,123.61 78.12,127.47 78.12,133.19C78.12,138.52 80.71,141.21 85.18,141.21C89.09,141.21 93.18,139.39 94.93,137.86C94.21,134.06 94.41,128.89 94.78,122.94C110.17,121.62 123.6,112.62 123.6,98.23C123.6,87.33 114.94,82.01 101.4,82.01Z" style="fill:rgb(246,242,208);fill-rule:nonzero;"/>
    <path d="M103.2,93.96C106.09,93.54 107.94,94.14 108.8,95.08C108.15,96.61 107.38,98.28 106.71,99.62C106.46,97.21 105.07,95.53 103.2,93.96Z" style="fill:rgb(240,176,180);fill-rule:nonzero;"/>
    <path d="M164.7,82.7C159.35,82.7 156.12,86.83 156.12,89.21C156.12,92.21 158.17,93.81 161.18,93.81C166.38,93.81 169.88,90.2 169.88,87.21C169.88,84.66 167.77,82.7 164.7,82.7Z" style="fill:rgb(246,242,208);fill-rule:nonzero;"/>
    <path d="M197.7,114.3C196.23,118.43 194.22,120.45 191.9,120.45C189.25,120.45 188.4,117.98 189.12,113.95C189.72,110.48 192.09,104.76 192.86,102.21C193.72,99.22 191.62,96.77 188.57,97.22C185.93,97.62 185.02,99.02 181.86,98.62C178.92,98.24 178.82,95.71 175.76,95.71C172.63,95.71 170.91,99.02 171.06,103.22C171.26,109.17 168.72,118.02 165.27,118.02C162.9,118.02 161.99,115.54 162.53,110.34C163.02,105.62 165.12,100.2 166.56,97.82C165.7,96.97 163.85,96.52 161.85,96.52C156.81,96.52 155.06,100.32 153.59,110.36C152.53,116.16 150.52,118.99 148.67,118.99C146.52,118.99 145.76,116.79 146.48,110.31C147.07,105.35 148.62,100.98 150.29,98.22C149.33,97.02 147.63,96.52 145.78,96.52C143.4,96.52 141.73,97.37 140.6,98.62C139.07,97.77 137.47,97.37 135.52,97.37C126.73,97.37 120.44,107.83 120.44,116.24C120.44,123.02 124.35,128.07 129.8,128.07C133.4,128.07 136.46,125.42 138.61,122.03C139.85,125.72 142.69,128.02 146.24,128.02C150.08,128.02 152.62,124.48 154.37,121.09C155.48,125.22 157.85,128.02 161.71,128.02C168.72,128.02 173.66,117.91 177.05,106.31L182.73,106.06C179.49,112.45 178.72,115.92 179.32,120.41C179.91,124.8 183.25,127.57 187.16,127.57C193.45,127.57 198.07,120.85 198.72,115.42C198.92,114.05 198.22,113.53 197.7,114.3ZM137.08,113.08C136.12,117.22 134.42,119.04 132.62,119.04C130.37,119.04 129.26,117.02 129.63,113.31C130.17,107.97 133.41,102.56 137.08,102.56C137.72,102.56 138.52,102.71 139.11,103.08L137.08,113.08Z" style="fill:rgb(246,242,208);fill-rule:nonzero;"/>
    <path d="M101.2,27.12L99.19,35.09C98.59,37.64 98.44,39.76 101.22,39.76C102.74,39.76 104.25,38.91 104.89,37.97C103.15,37.64 103.07,36.8 103.4,35.27L105.25,27.09C106.21,27.24 107.02,27.31 107.74,27.31C109.13,27.31 109.6,26.27 109.6,25.43C109.6,25.11 109.5,24.76 109.35,24.54C108.76,24.88 107.74,25.03 105.99,25.03L100.53,25.03C97.19,25.03 96.6,26.74 96.6,28.01C96.6,28.51 96.75,28.95 97,29.25C98.24,27.73 99.48,27.14 101.2,27.12Z" style="fill:rgb(209,45,39);fill-rule:nonzero;"/>
    <path d="M108.2,36.45C107.8,38.6 108.66,39.44 110.25,39.44C112.45,39.44 113.74,37.17 114.6,34.62C114.16,36.95 114.5,39.44 117.44,39.44C118.83,39.44 119.94,38.77 120.77,37.77C121.41,38.89 122.55,39.44 123.94,39.44C126.64,39.44 127.88,37.17 127.93,36.13C127.98,35.64 127.43,35.44 127.09,35.83C126.24,36.95 125.23,37.64 124.12,37.64C123.21,37.64 122.52,37.05 122.27,35.83C125.16,35.49 127.27,33.52 127.27,31.71C127.27,30.31 126.21,29.54 124.52,29.54C121.93,29.54 120.03,32.08 119.34,34.62C118.63,36.38 117.83,37.32 117.09,37.32C116.13,37.32 116.33,35.81 116.77,33.94C117.41,31.24 117.46,29.54 115.09,29.54C113.85,29.54 112.74,30.31 111.53,32.13L113.64,25.13L110.18,25.13L108.2,36.45ZM124.33,31.07C124.87,31.07 124.97,31.56 124.82,32.2C124.52,33.47 123.56,34.32 122.03,34.62C122.4,32.85 123.31,31.07 124.33,31.07Z" style="fill:rgb(209,45,39);fill-rule:nonzero;"/>
</svg>
