<?xml version="1.0" encoding="UTF-8" standalone="no"?>
<!DOCTYPE svg PUBLIC "-//W3C//DTD SVG 1.1//EN" "http://www.w3.org/Graphics/SVG/1.1/DTD/svg11.dtd">
<svg width="169" height="57" viewBox="0 0 169 57" version="1.1" xmlns="http://www.w3.org/2000/svg" xmlns:xlink="http://www.w3.org/1999/xlink" xml:space="preserve" xmlns:serif="http://www.serif.com/" style="fill-rule:evenodd;clip-rule:evenodd;stroke-linejoin:round;stroke-miterlimit:2;">
    <g transform="matrix(1,0,0,1,-14,-87.5)">
        <path d="M15,99.8L15,94C15,92 16.4,88.1 21.9,88.1C27.4,88.1 29.4,91.1 29.4,94.9L29.4,97.2L24.6,97.2L24.5,92C24.5,90.5 23.7,88.9 22.3,88.9C20.9,88.9 20.4,90.4 20.4,91.6L20.4,99.4C20.5,102.5 24.2,103.8 27,107.4C28.8,109.4 30.2,112.4 30.2,117.5L30.2,126.6C30.2,129.8 29,134.1 23,134.1C17,134.2 15.7,130.4 15.7,127L15.7,118.8L20.6,118.8L20.6,130C20.6,132.7 22,133.1 22.9,133C24.8,132.8 25.1,131.2 25.1,128.7L25.1,117.7C24.9,110 20.4,108.9 17.5,105.8C15,103.5 15,101.2 15,99.8ZM41.3,100.2C39.5,100.2 38.2,100.9 37.4,102.1L37.3,100.7L31.4,100.7L31.4,101.8L32.5,101.8L32.7,103L32.7,141.4L31.3,141.4L31.3,142.6L38.8,142.6L38.7,142.5L38.5,141.4L37.3,141.4L37.2,132.6C38,133.3 39.1,134 40.4,134C42.9,134 45.9,132.6 45.9,127.3L45.9,107C46,102.5 44.2,100.4 41.3,100.2ZM41,129.3C41,131.3 40.4,132.6 39.5,132.6C38.7,132.6 37.7,132 37.3,131.3L37.3,103.7C37.9,103 38.8,102.4 39.5,102.4C40.7,102.4 41,103.6 41,104.9L41,129.3ZM57.4,100.5C55.6,100.6 54.5,102.1 54,103.3L54,100.7L47.7,100.7L47.7,101.8L48.8,101.8L48.9,102.9L48.9,131.2L48.7,132.5L47.6,132.5L47.5,133.7L55,133.7L55.1,132.5L54,132.5L53.7,131.2L53.7,105.6C53.6,104.4 54.5,103.1 54.6,102.9C54.6,103 54.5,103.3 54.5,103.6C54.5,105.1 55.6,106.5 57.1,106.5C58.7,106.5 60.1,105.2 60.1,103.6C60.1,102 58.8,100.5 57.4,100.5ZM158.8,100.5C156.8,100.2 155.5,102.1 155.1,103.3L155.1,100.7L148.8,100.7L148.8,101.8L149.9,101.8L149.9,132.5L149.7,132.6L147.8,132.6L147.5,131.7L147.5,106.3C147.5,102.9 145.9,100.5 141.5,100.5C138,100.4 134.1,101.6 134,107L134,109.9L140,113.8L140,104C139.4,103.7 139.1,101.5 141.1,101.5C143,101.5 142.6,103.5 142.7,104.7L142.7,133.9L156.6,133.9L156.5,132.6L155.4,132.6L155.1,131.2L155.1,105.7C155,104.4 155.8,103.4 156.1,103C156,103.3 156,103.5 156,103.6C156,105.2 157.1,106.5 158.6,106.5C160.1,106.5 161.6,105.4 161.6,103.6C161.6,102.1 160.3,100.6 158.8,100.5ZM67.1,131.9L67.1,100.7L60.7,100.7L60.7,101.8L61.5,101.8L61.8,103L61.8,132.5L61.5,132.6L60.4,132.6L60.3,133.7L75.6,133.7L75.5,132.6L74.5,132.6L74.3,131.3L74.3,103.5C75,102.9 75.7,102.4 76.3,102.4C77.5,102.4 77.8,103.6 77.8,104.9L77.9,133.7L84.1,133.7L84.2,132.6L83.3,132.6L83.1,131.2L83.1,106.7C83.1,102.4 80.6,100.9 78.3,100.9C77,100.9 75.5,101.5 74.5,102.5L74.5,100.9L68.1,100.9L68.2,102.1L69,102.2L69.1,102.9L69.1,132.5L68.8,132.6L67.3,132.6L67.1,131.9Z" style="fill:rgb(225,229,63);fill-rule:nonzero;"/>
    </g>
    <g transform="matrix(1,0,0,1,-14,-87.5)">
        <path d="M63.7,95.7C65.5,95.7 67,94.3 67,92.5C67,90.9 65.5,89.1 63.7,89.1C62,89.1 60.5,90.5 60.5,92.4C60.5,94.5 62.1,95.7 63.7,95.7ZM111.6,100.5C110.4,100.5 109.1,100.9 107.9,102.1L107.9,88.7L101.6,88.7L101.5,89.9L102.5,89.9L102.7,90.4L102.8,131.9L102.6,132.6L101.6,132.6L101.7,133.7L107.6,133.7L107.7,132.6C108.5,133.5 109.8,134.2 111.1,134.2C113.9,134.2 116.4,132.4 116.4,127.7L116.4,107C116.4,104.2 115.1,100.6 111.6,100.5ZM111.1,129.8C111.1,131.1 110.6,132.6 110,132.6C108.9,132.8 108.1,132 107.7,131.4L107.7,103.6C107.7,103.6 108.5,102.2 109.7,102.2C110.9,102.2 111.2,103.5 111.2,104.9C111.2,107 111.2,129.5 111.1,129.8ZM125.5,100.5C121.4,100.5 118.5,103.3 118.5,107.7L118.5,126.8C118.5,131.4 121.1,134.2 125.5,134.2C129.4,134.2 132.4,131.7 132.4,127.1L132.4,107.6C132.4,103.7 129.8,100.5 125.5,100.5ZM127.3,130.1C127.2,131.8 126.8,133 125.5,133C124.4,133 123.7,132.1 123.6,130.1L123.6,104.4C123.7,102.9 124.5,101.8 125.5,101.8C126.7,101.8 127.4,103 127.3,104.6L127.3,130.1ZM175.1,132.6L175,99.2L175,88.7L168.7,88.7L168.7,89.9L169.9,89.9L170.2,90.4L170.2,101.5C169.5,100.8 168.1,100.5 167.1,100.5C164.7,100.5 162,102.2 162,106.2L162,127.8C162,133.4 165,134.4 167.2,134.3C168.3,134.3 169.5,133.7 170.4,132.8L170.4,134.1L176.7,134.1L176.7,132.8L175.1,132.6ZM170.1,131.2C169.7,131.8 168.9,132.6 167.9,132.6C166.9,132.4 166.7,131.1 166.7,130L166.7,105.2C166.7,104.1 167.1,102.4 168.2,102.4C169,102.4 170.1,103.1 170.1,103.7L170.1,131.2ZM138.9,119.8C138.9,117.5 139.6,115.1 141.9,114.4C139.5,114.4 134,115.1 134,120.6L134,127.5C134,131.2 135.6,133.8 139.5,133.8L142.4,133.7C140,131.8 139,129.7 139,125.1L138.9,119.8ZM94.2,126.9C91.7,125.7 89.9,124.6 89.9,123.5C89.6,121.9 91.3,121 92.7,120.7C90.4,120.4 85.3,119.4 85.3,114L85.3,109.4C86,104.6 90.4,100.9 95.4,101C97.8,101 100.5,102.5 100.5,106.7L100.5,126.6L95.5,126.6L95.5,103.6C95.5,102.5 95.1,102.1 94.4,102.1C92.9,102.1 90.4,105.2 90.4,110L90.4,115.8C90.7,118.8 91.7,119.9 93,120.7C90.4,121.1 86,122.6 86,125.6C86.1,126.9 86.9,128.3 88.9,129.1C93.1,131.4 95.8,132 96,135.5C96.1,138.8 95,141.7 92.9,141.7C91.1,141.7 89.6,139.6 89.6,136.8C89.9,133.7 90.5,132.5 92,131.6C88.9,131.6 84.9,133.8 85.1,137.5C85.9,141.2 89.6,142.6 92.9,142.6C97,142.6 100.8,140.6 100.9,135C100.9,129.7 96.3,128.1 94.2,126.9Z" style="fill:rgb(225,229,63);fill-rule:nonzero;"/>
    </g>
</svg>
