<?xml version="1.0" encoding="UTF-8" standalone="no"?>
<!DOCTYPE svg PUBLIC "-//W3C//DTD SVG 1.1//EN" "http://www.w3.org/Graphics/SVG/1.1/DTD/svg11.dtd">
<svg width="100%" height="100%" viewBox="0 0 175 26" version="1.1" xmlns="http://www.w3.org/2000/svg" xmlns:xlink="http://www.w3.org/1999/xlink" xml:space="preserve" xmlns:serif="http://www.serif.com/" style="fill-rule:evenodd;clip-rule:evenodd;stroke-linejoin:round;stroke-miterlimit:2;">
    <path d="M14.6,4L12.4,7C11.5,6.2 10,5.4 8.3,5.4C6.6,5.4 6.2,6.3 6.2,6.9C6.2,7.6 6.9,8 8.2,8.2L9.9,8.5C13.3,9.1 15,10.5 15,13.7C15,16.6 12.7,19.1 8.6,19.1C6,19.1 3.7,18.6 1.8,17L4,13.8C5.6,15 7,15.6 8.6,15.6C10.4,15.6 10.9,14.8 10.9,14C10.9,13.1 10,12.7 8.6,12.4L6.9,12C3.8,11.4 2.3,9.8 2.3,7.3C2.3,4.3 4.4,1.9 8.5,1.9C10.1,2 12.5,2.3 14.6,4ZM21.3,7.1L21.3,3.8L17.7,3.8L17.7,7.1L16,7.1L16,10.1L18,10.1L18,14.5C17.9,17.5 19.7,18.8 22,18.7C22.9,18.8 23.7,18.6 24.3,18.4L23.9,15.2C23.6,15.4 23.3,15.6 22.6,15.6C22,15.6 21.3,15.3 21.3,14.3L21.3,10.3L24.1,10.3L24.1,7.1L21.3,7.1ZM36.7,13.7L36.7,12.9C36.6,9.6 34.3,6.8 31.1,6.9C28,6.9 25.3,9.2 25.3,12.8C25.3,16.6 28.1,18.7 31.2,18.7C33,18.7 34.6,18.2 36,17L34,14.8C33.4,15.4 32.6,15.8 31.6,15.8C30.2,15.8 28.9,15.1 28.8,13.8L36.7,13.7ZM33.3,11.7L28.8,11.7C29,10.7 29.8,9.7 31.1,9.7C32.5,9.7 33.2,10.7 33.3,11.7Z" style="fill:rgb(160,255,232);fill-rule:nonzero;stroke:rgb(2,2,3);stroke-width:0.45;"/>
    <path d="M53.5,10.2L53.5,6.6L43.3,7.4L43.3,10.1L53.5,10.2ZM49.5,15.9L49.5,12.3L40.5,12.3L40.5,15L49.5,15.9ZM45.5,21L45.5,17.2L37.5,16.3L37.5,19.2L45.5,21Z" style="fill:rgb(160,255,232);fill-rule:nonzero;stroke:rgb(2,2,3);stroke-width:0.45;"/>
    <path d="M67.1,12.8C67.1,16.6 64.7,18.8 61.8,18.8C60.7,18.8 59.7,18.1 58.6,17.4L58.6,23.2L54.8,23.2L54.8,7.1L58.5,7.1L58.5,8.3C59.4,7.4 60.4,6.8 61.6,6.8C61.644,6.8 61.687,6.8 61.731,6.801C64.605,6.821 66.955,9.099 67.065,11.971C67.087,12.468 67.1,12.8 67.1,12.8ZM58.4,12.8L58.4,12.9C58.4,14.5 59.5,15.6 60.9,15.6C62.3,15.6 63.4,14.5 63.4,12.9C63.4,11.4 62.5,10.1 60.9,10.1C59.6,10.1 58.4,11.1 58.4,12.8ZM72.3,3.7C72.3,4.9 71.4,5.7 70.3,5.7C69.1,5.7 68.2,5 68.2,3.8C68.2,2.6 69.1,1.7 70.3,1.7C71.4,1.7 72.4,2.4 72.3,3.7ZM72,18.6L72,7.1L68.5,7.1L68.5,18.6L72,18.6ZM84.6,9.1C84.3,8.3 83.3,6.9 80.8,6.9C79.5,6.9 78.6,7.6 77.6,8.5L77.6,7.1L74.1,7.1L74.1,18.6L77.6,18.6L77.6,12.4C77.6,11.1 78.6,10.2 79.5,10.2C80.5,10.2 81.3,10.8 81.3,12.1L81.3,18.5L84.6,18.5L84.6,9.1ZM94.5,8.4L94.5,7.2L97.8,7.2L97.8,18C97.8,22 95,23.5 91.6,23.5C89.9,23.5 88.1,23 86.6,21.8L88.5,19.1C89.4,20.1 90.9,20.5 91.9,20.5C93.2,20.5 94.4,19.8 94.4,18.4L94.4,17.2L94.3,17.2C93.6,17.9 92.6,18.4 91,18.4C88.3,18.4 86.3,16.4 86.3,12.9C86.3,9.2 88.6,7 91.4,7C92.8,7 93.9,7.7 94.5,8.4ZM94.4,12.8C94.4,11.1 93.3,10.1 91.9,10.1C90.5,10.1 89.6,11.1 89.6,12.6C89.6,14.1 90.5,15.3 92,15.3C93.4,15.3 94.4,14.4 94.4,12.8Z" style="fill:rgb(160,255,232);fill-rule:nonzero;stroke:rgb(2,2,3);stroke-width:0.45;"/>
    <path d="M114.5,8.5L112.8,10.7C112,10.1 111.2,9.6 109.9,9.6C108.9,9.6 108.6,10 108.6,10.4C108.6,10.9 109.1,11.1 110.6,11.5C113.3,12 114.6,13 114.6,15.1C114.6,17.3 112.8,18.8 109.7,18.8C107.8,18.8 106.2,18.4 105,17.3L106.7,14.9C107.7,15.6 108.6,16.1 110,16.1C111.4,16.1 111.5,15.7 111.5,15.3C111.5,14.8 110.6,14.4 109.5,14.2C107.3,13.7 105.4,13.1 105.4,10.5C105.4,8.5 107.3,7 109.9,7C111.5,7 113.3,7.6 114.5,8.5ZM120.8,18.7C121.9,18.9 123.4,18.8 123.9,18.5L123.8,18.5L123.9,18.5L123.8,18.5L123.9,18.5L123.8,18.5L123.9,18.5L123.8,18.5L123.9,18.5L123.7,18.5L124.1,18.5L124,18.5L124.1,18.5L123.9,18.5L124,18.5L123.8,18.5L123.9,18.5L124.2,18.4L123.9,15.2C123.6,15.4 123.1,15.6 122.4,15.6C121.7,15.6 120.8,15.2 120.8,14.3L120.8,10.3L123.5,10.3L123.5,7.1L120.8,7.1L120.8,3.8L117.4,3.8L117.4,7.1L115.6,7.1L115.6,10.4L117.4,10.4L117.4,14.8L117.4,14.7C117.5,17 118.6,18.4 120.8,18.7ZM136.7,12.9C136.7,15.9 134.5,18.7 130.8,18.8C127.3,18.8 124.6,16.4 124.5,12.9C124.5,9.7 126.9,7 130.5,6.9C133.7,6.9 136.6,9.1 136.7,12.8L136.7,12.9ZM133.4,12.9C133.4,11.3 132.4,10.1 130.8,10.1C129.2,10.1 128.2,11.4 128.2,12.9C128.2,14.4 129.4,15.5 130.7,15.5C132.4,15.5 133.4,14.4 133.4,12.9Z" style="fill:rgb(160,255,232);fill-rule:nonzero;stroke:rgb(2,2,3);stroke-width:0.45;"/>
    <path d="M145.8,6.9C145.3,6.8 144,6.7 143.3,7C142.5,7.3 141.9,7.8 141.6,8.2L141.6,7.1L138.2,7.1L138.2,18.6L141.7,18.6L141.7,12.2C141.7,11 142.6,10.2 143.7,10.2C144.9,10.2 145.6,10.8 145.6,12.2L145.6,18.6L149.2,18.6L149.2,11.4C149.2,9.2 148,7.4 145.8,6.9ZM162.2,13.8L154.7,13.9C154.8,15.1 155.9,15.9 157.4,15.9C157.9,15.9 159,15.7 159.6,14.9L161.6,17.1C160.7,18.4 158.6,18.9 156.9,18.9C153.9,18.9 151,16.9 151,13.1C150.9,9.6 153.5,7.1 156.7,7C160,7 162.4,9.6 162.3,12.9L162.2,13.8ZM158.7,11.7C158.6,10.7 157.6,9.8 156.6,9.8C155.3,9.8 154.6,10.7 154.5,11.7L158.7,11.7ZM172,8.4C171,7.7 169.5,6.9 167.8,6.9C165,6.9 163.3,8.4 163.3,10.4C163.3,12.9 165.5,13.7 167.4,14.1C169.3,14.5 169.4,15 169.4,15.3C169.4,15.6 169,16.1 167.9,16.2C166.7,16.2 165.5,15.6 165.2,15L163.3,17.3C164.2,18.1 165.6,18.9 168,18.9C171.1,18.9 173,17.7 172.8,15.1C172.8,13 171.4,12.2 168.6,11.6C167.2,11.3 166.8,11 166.8,10.5C166.8,10.1 167.4,9.7 168.2,9.7C169.4,9.7 170.4,10.4 170.6,10.7L172.5,8.4L172,8.4Z" style="fill:rgb(160,255,232);fill-rule:nonzero;stroke:rgb(2,2,3);stroke-width:0.45;"/>
</svg>
